<?xml version="1.0" encoding="UTF-8" standalone="no"?><!-- Generator: Gravit.io --><svg xmlns="http://www.w3.org/2000/svg" xmlns:xlink="http://www.w3.org/1999/xlink" style="isolation:isolate" viewBox="0 0 200 70" width="200pt" height="70pt"><defs><clipPath id="_clipPath_EYLXYcCYXPJK1MmXnlGPRTIwv2mRvEvu"><rect width="200" height="70"/></clipPath></defs><g clip-path="url(#_clipPath_EYLXYcCYXPJK1MmXnlGPRTIwv2mRvEvu)"><clipPath id="_clipPath_9sn9dWhlIb7ptyHR0a9uqM8yxKl5x7MB"><rect x="7.727" y="0" width="184.545" height="70" transform="matrix(1,0,0,1,0,0)" fill="rgb(255,255,255)"/></clipPath><g clip-path="url(#_clipPath_9sn9dWhlIb7ptyHR0a9uqM8yxKl5x7MB)"><g><g><path d=" M 172.868 42.568 L 172.868 54.196 L 175.751 54.196 L 178.635 54.196 L 178.635 49.598 C 178.635 45.172 178.651 45 178.931 45 C 179.399 45 180.116 45.967 181.893 48.912 C 182.797 50.408 183.903 52.201 184.356 52.903 L 185.182 54.196 L 188.688 54.196 C 190.621 54.196 192.196 54.165 192.196 54.118 C 192.196 53.853 187.598 46.684 186.537 45.296 L 185.992 44.579 L 186.74 44.236 C 188.33 43.519 189.639 41.961 190.2 40.121 C 190.684 38.531 190.559 36.38 189.904 35.009 C 189.296 33.715 188.19 32.5 187.161 32.001 C 185.369 31.128 184.932 31.081 178.682 31.003 L 172.868 30.941 L 172.868 42.568 Z  M 181.706 35.476 C 183.108 35.679 183.701 36.022 184.106 36.848 C 184.511 37.674 184.465 38.875 183.981 39.514 C 183.389 40.309 182.641 40.542 180.474 40.605 L 178.479 40.667 L 178.479 38.002 L 178.479 35.336 L 179.617 35.336 C 180.225 35.336 181.176 35.399 181.706 35.476 Z  M 152.293 42.584 L 152.293 54.196 L 159.853 54.196 L 167.413 54.196 L 167.413 51.78 L 167.413 49.364 L 162.815 49.364 L 158.216 49.364 L 158.216 46.87 L 158.216 44.377 L 161.568 44.377 L 164.919 44.377 L 164.919 42.039 L 164.919 39.701 L 161.568 39.701 L 158.216 39.701 L 158.216 37.674 L 158.216 35.648 L 162.253 35.648 L 166.29 35.648 L 166.618 33.809 C 166.805 32.811 166.992 31.751 167.038 31.471 L 167.132 30.972 L 159.713 30.972 L 152.293 30.972 L 152.293 42.584 Z  M 131.984 31.081 C 131.937 31.159 131.657 32.048 131.345 33.076 C 131.033 34.105 130.737 35.071 130.69 35.212 C 130.612 35.476 130.94 35.492 135.382 35.524 L 140.167 35.57 L 139.637 36.271 C 139.341 36.661 137.081 39.95 134.634 43.582 L 130.16 50.19 L 130.16 52.201 L 130.16 54.196 L 138.234 54.196 L 146.292 54.196 L 147.057 52.123 C 147.477 51.001 147.851 49.972 147.883 49.863 C 147.945 49.723 146.869 49.676 142.801 49.676 L 137.642 49.676 L 142.552 42.319 L 147.462 34.947 L 147.462 32.967 L 147.462 30.972 L 139.762 30.972 C 135.522 30.972 132.015 31.019 131.984 31.081 Z  M 107.139 31.627 C 107.342 32.001 109.149 35.087 111.129 38.5 L 114.729 44.704 L 114.729 49.442 L 114.729 54.196 L 117.769 54.196 L 120.808 54.196 L 120.808 49.442 L 120.808 44.688 L 124.876 37.955 C 127.121 34.245 128.991 31.159 129.022 31.081 C 129.054 31.019 127.51 30.972 125.578 30.972 L 122.055 30.972 L 120.403 34.276 C 119.483 36.1 118.579 37.986 118.392 38.454 L 118.034 39.295 L 115.961 35.134 L 113.872 30.972 L 110.318 30.972 L 106.749 30.972 L 107.139 31.627 Z  M 94.436 42.568 L 94.389 54.165 L 94.778 54.228 C 94.996 54.258 98.083 54.258 101.652 54.228 L 108.136 54.181 L 108.713 51.967 C 109.025 50.752 109.274 49.661 109.274 49.552 C 109.274 49.411 108.292 49.364 104.91 49.364 L 100.546 49.364 L 100.546 40.168 L 100.546 30.972 L 97.506 30.972 L 94.467 30.972 L 94.436 42.568 Z  M 76.651 31.627 C 76.449 32.203 69.248 51.827 68.904 52.716 Q 68.842 52.887 68.328 54.274 L 71.492 54.228 L 74.64 54.181 L 74.905 53.448 C 75.046 53.043 75.404 51.967 75.7 51.032 L 76.246 49.364 L 79.628 49.395 L 82.995 49.442 L 83.494 50.845 C 83.759 51.609 84.522 53.978 84.6 54.056 C 84.725 54.165 86.845 54.243 89.604 54.212 C 90.851 54.196 90.897 54.181 90.835 53.838 C 90.804 53.651 90.726 53.386 90.664 53.261 C 90.617 53.136 88.856 48.086 86.782 42.039 L 82.979 31.05 L 79.94 31.003 L 76.885 30.972 L 76.651 31.627 Z  M 80.626 40.869 C 81.047 42.662 81.436 44.299 81.483 44.486 C 81.561 44.844 81.561 44.844 79.659 44.844 C 77.758 44.844 77.758 44.844 77.836 44.486 C 78.303 42.35 79.753 37.051 79.784 37.285 C 79.815 37.456 80.189 39.062 80.626 40.869 Z  M 50.98 33.31 L 50.98 35.648 L 54.019 35.648 L 57.074 35.648 L 57.059 44.86 C 57.043 49.926 57.059 54.087 57.09 54.118 C 57.121 54.149 58.493 54.196 60.145 54.212 L 63.138 54.274 L 63.138 44.969 L 63.138 35.648 L 65.99 35.648 L 68.842 35.648 L 69.357 33.497 C 69.653 32.328 69.918 31.268 69.964 31.159 C 70.011 31.019 68.063 30.972 60.503 30.972 L 50.98 30.972 L 50.98 33.31 Z  M 33.522 41.384 C 31.434 47.104 29.486 52.435 29.33 52.809 C 29.174 53.183 28.987 53.651 28.925 53.853 L 28.831 54.196 L 31.98 54.165 L 35.128 54.118 L 35.908 51.733 L 36.702 49.364 L 40.069 49.364 L 43.42 49.364 L 43.841 50.549 C 44.09 51.204 44.558 52.497 44.761 53.105 L 45.135 54.196 L 48.267 54.196 C 51.525 54.196 51.494 54.196 51.245 53.573 C 50.871 52.669 50.232 50.767 50.309 50.767 C 50.356 50.767 50.325 50.674 50.247 50.565 C 50.154 50.471 48.595 46.013 46.756 40.683 L 43.42 30.972 L 40.381 30.972 L 37.342 30.972 L 33.522 41.384 Z  M 41.301 41.836 L 42.033 44.844 L 40.1 44.844 C 38.168 44.844 38.168 44.844 38.261 44.486 C 38.682 42.989 40.069 37.409 40.085 37.145 C 40.1 36.973 40.209 37.269 40.334 37.83 C 40.459 38.391 40.895 40.2 41.301 41.836 Z  M 7.804 42.553 L 7.804 54.181 L 9.254 54.228 C 10.033 54.258 12.402 54.228 14.507 54.181 C 18.559 54.071 19.354 53.947 20.991 53.167 C 21.427 52.965 22.768 52.17 23.781 51.157 C 25.963 48.99 26.961 45.904 26.774 41.898 C 26.68 39.576 26.337 38.095 25.495 36.35 C 24.295 33.855 22.238 32.188 19.385 31.408 C 18.279 31.112 17.671 31.066 12.995 31.003 L 7.804 30.941 L 7.804 42.553 Z  M 17.749 35.835 C 19.541 36.755 20.43 39.654 20.227 43.909 C 20.118 46.122 19.728 47.478 18.918 48.414 C 18.107 49.364 17.64 49.52 15.52 49.52 L 13.727 49.52 L 13.727 42.413 L 13.727 35.29 L 15.38 35.383 C 16.689 35.445 17.172 35.539 17.749 35.835 Z " fill-rule="evenodd" fill="rgb(191,49,26)"/><path d=" M 123.253 58.3 L 125.573 58.3 L 125.573 59.046 L 124.848 59.046 L 124.848 64.981 L 125.573 64.981 L 125.573 65.727 L 123.253 65.727 L 123.253 64.981 L 123.978 64.981 L 123.978 59.046 L 123.253 59.046 L 123.253 58.3 Z  M 134.344 62.459 L 134.344 65.727 L 133.495 65.727 L 133.495 62.681 L 133.495 62.681 Q 133.495 61.801 133.223 61.407 L 133.223 61.407 L 133.223 61.407 Q 132.951 61.014 132.309 61.014 L 132.309 61.014 L 132.309 61.014 Q 131.765 61.014 131.384 61.511 L 131.384 61.511 L 131.384 61.511 Q 131.004 62.008 131.004 62.702 L 131.004 62.702 L 131.004 65.727 L 130.154 65.727 L 130.154 62.578 L 130.154 62.578 Q 130.154 61.014 128.948 61.014 L 128.948 61.014 L 128.948 61.014 Q 128.389 61.014 128.026 61.482 L 128.026 61.482 L 128.026 61.482 Q 127.664 61.951 127.664 62.702 L 127.664 62.702 L 127.664 65.727 L 126.814 65.727 L 126.814 60.424 L 127.664 60.424 L 127.664 61.262 L 127.684 61.262 L 127.684 61.262 Q 128.249 60.299 129.331 60.299 L 129.331 60.299 L 129.331 60.299 Q 129.875 60.299 130.279 60.602 L 130.279 60.602 L 130.279 60.602 Q 130.682 60.905 130.833 61.397 L 130.833 61.397 L 130.833 61.397 Q 131.423 60.299 132.594 60.299 L 132.594 60.299 L 132.594 60.299 Q 134.344 60.299 134.344 62.459 L 134.344 62.459 Z  M 136.947 64.96 L 136.947 64.96 L 136.926 64.96 L 136.926 68.166 L 136.077 68.166 L 136.077 60.424 L 136.926 60.424 L 136.926 61.356 L 136.947 61.356 L 136.947 61.356 Q 137.573 60.299 138.78 60.299 L 138.78 60.299 L 138.78 60.299 Q 139.805 60.299 140.38 61.011 L 140.38 61.011 L 140.38 61.011 Q 140.955 61.723 140.955 62.92 L 140.955 62.92 L 140.955 62.92 Q 140.955 64.251 140.308 65.051 L 140.308 65.051 L 140.308 65.051 Q 139.66 65.851 138.536 65.851 L 138.536 65.851 L 138.536 65.851 Q 137.506 65.851 136.947 64.96 Z  M 136.926 62.821 L 136.926 62.821 L 136.926 63.562 L 136.926 63.562 Q 136.926 64.22 137.353 64.678 L 137.353 64.678 L 137.353 64.678 Q 137.78 65.136 138.438 65.136 L 138.438 65.136 L 138.438 65.136 Q 139.21 65.136 139.648 64.546 L 139.648 64.546 L 139.648 64.546 Q 140.085 63.955 140.085 62.904 L 140.085 62.904 L 140.085 62.904 Q 140.085 62.019 139.676 61.516 L 139.676 61.516 L 139.676 61.516 Q 139.267 61.014 138.567 61.014 L 138.567 61.014 L 138.567 61.014 Q 137.827 61.014 137.377 61.529 L 137.377 61.529 L 137.377 61.529 Q 136.926 62.045 136.926 62.821 Z  M 145.205 60.403 L 145.205 61.283 L 145.205 61.283 Q 144.982 61.112 144.562 61.112 L 144.562 61.112 L 144.562 61.112 Q 144.019 61.112 143.654 61.625 L 143.654 61.625 L 143.654 61.625 Q 143.288 62.138 143.288 63.023 L 143.288 63.023 L 143.288 65.727 L 142.439 65.727 L 142.439 60.424 L 143.288 60.424 L 143.288 61.516 L 143.309 61.516 L 143.309 61.516 Q 143.49 60.957 143.863 60.644 L 143.863 60.644 L 143.863 60.644 Q 144.236 60.33 144.697 60.33 L 144.697 60.33 L 144.697 60.33 Q 145.029 60.33 145.205 60.403 L 145.205 60.403 Z  M 148.47 65.851 L 148.47 65.851 L 148.47 65.851 Q 147.295 65.851 146.593 65.108 L 146.593 65.108 L 146.593 65.108 Q 145.891 64.364 145.891 63.137 L 145.891 63.137 L 145.891 63.137 Q 145.891 61.801 146.621 61.05 L 146.621 61.05 L 146.621 61.05 Q 147.351 60.299 148.594 60.299 L 148.594 60.299 L 148.594 60.299 Q 149.78 60.299 150.446 61.029 L 150.446 61.029 L 150.446 61.029 Q 151.111 61.76 151.111 63.054 L 151.111 63.054 L 151.111 63.054 Q 151.111 64.323 150.394 65.087 L 150.394 65.087 L 150.394 65.087 Q 149.677 65.851 148.47 65.851 Z  M 148.532 61.014 L 148.532 61.014 L 148.532 61.014 Q 147.714 61.014 147.238 61.571 L 147.238 61.571 L 147.238 61.571 Q 146.761 62.127 146.761 63.106 L 146.761 63.106 L 146.761 63.106 Q 146.761 64.049 147.243 64.592 L 147.243 64.592 L 147.243 64.592 Q 147.724 65.136 148.532 65.136 L 148.532 65.136 L 148.532 65.136 Q 149.356 65.136 149.798 64.603 L 149.798 64.603 L 149.798 64.603 Q 150.241 64.07 150.241 63.085 L 150.241 63.085 L 150.241 63.085 Q 150.241 62.091 149.798 61.552 L 149.798 61.552 L 149.798 61.552 Q 149.356 61.014 148.532 61.014 Z  M 155.868 60.424 L 156.764 60.424 L 154.651 65.727 L 153.818 65.727 L 151.808 60.424 L 152.741 60.424 L 154.087 64.277 L 154.087 64.277 Q 154.237 64.701 154.273 65.017 L 154.273 65.017 L 154.294 65.017 L 154.294 65.017 Q 154.346 64.618 154.46 64.297 L 154.46 64.297 L 155.868 60.424 Z  M 162.065 62.842 L 162.065 63.287 L 158.321 63.287 L 158.321 63.287 Q 158.342 64.173 158.797 64.655 L 158.797 64.655 L 158.797 64.655 Q 159.253 65.136 160.051 65.136 L 160.051 65.136 L 160.051 65.136 Q 160.947 65.136 161.698 64.546 L 161.698 64.546 L 161.698 65.343 L 161.698 65.343 Q 160.998 65.851 159.849 65.851 L 159.849 65.851 L 159.849 65.851 Q 158.725 65.851 158.083 65.128 L 158.083 65.128 L 158.083 65.128 Q 157.44 64.406 157.44 63.096 L 157.44 63.096 L 157.44 63.096 Q 157.44 61.858 158.142 61.079 L 158.142 61.079 L 158.142 61.079 Q 158.844 60.299 159.885 60.299 L 159.885 60.299 L 159.885 60.299 Q 160.926 60.299 161.496 60.973 L 161.496 60.973 L 161.496 60.973 Q 162.065 61.646 162.065 62.842 L 162.065 62.842 Z  M 158.331 62.567 L 161.195 62.567 L 161.195 62.567 Q 161.19 61.832 160.84 61.423 L 160.84 61.423 L 160.84 61.423 Q 160.491 61.014 159.87 61.014 L 159.87 61.014 L 159.87 61.014 Q 159.269 61.014 158.849 61.444 L 158.849 61.444 L 158.849 61.444 Q 158.43 61.874 158.331 62.567 L 158.331 62.567 Z  M 171.007 62.459 L 171.007 65.727 L 170.157 65.727 L 170.157 62.681 L 170.157 62.681 Q 170.157 61.801 169.885 61.407 L 169.885 61.407 L 169.885 61.407 Q 169.614 61.014 168.971 61.014 L 168.971 61.014 L 168.971 61.014 Q 168.428 61.014 168.047 61.511 L 168.047 61.511 L 168.047 61.511 Q 167.666 62.008 167.666 62.702 L 167.666 62.702 L 167.666 65.727 L 166.817 65.727 L 166.817 62.578 L 166.817 62.578 Q 166.817 61.014 165.61 61.014 L 165.61 61.014 L 165.61 61.014 Q 165.051 61.014 164.688 61.482 L 164.688 61.482 L 164.688 61.482 Q 164.326 61.951 164.326 62.702 L 164.326 62.702 L 164.326 65.727 L 163.477 65.727 L 163.477 60.424 L 164.326 60.424 L 164.326 61.262 L 164.347 61.262 L 164.347 61.262 Q 164.911 60.299 165.993 60.299 L 165.993 60.299 L 165.993 60.299 Q 166.537 60.299 166.941 60.602 L 166.941 60.602 L 166.941 60.602 Q 167.345 60.905 167.495 61.397 L 167.495 61.397 L 167.495 61.397 Q 168.086 60.299 169.256 60.299 L 169.256 60.299 L 169.256 60.299 Q 171.007 60.299 171.007 62.459 L 171.007 62.459 Z  M 177.001 62.842 L 177.001 63.287 L 173.257 63.287 L 173.257 63.287 Q 173.278 64.173 173.734 64.655 L 173.734 64.655 L 173.734 64.655 Q 174.189 65.136 174.987 65.136 L 174.987 65.136 L 174.987 65.136 Q 175.883 65.136 176.634 64.546 L 176.634 64.546 L 176.634 65.343 L 176.634 65.343 Q 175.935 65.851 174.785 65.851 L 174.785 65.851 L 174.785 65.851 Q 173.661 65.851 173.019 65.128 L 173.019 65.128 L 173.019 65.128 Q 172.377 64.406 172.377 63.096 L 172.377 63.096 L 172.377 63.096 Q 172.377 61.858 173.078 61.079 L 173.078 61.079 L 173.078 61.079 Q 173.78 60.299 174.821 60.299 L 174.821 60.299 L 174.821 60.299 Q 175.862 60.299 176.432 60.973 L 176.432 60.973 L 176.432 60.973 Q 177.001 61.646 177.001 62.842 L 177.001 62.842 Z  M 173.268 62.567 L 176.132 62.567 L 176.132 62.567 Q 176.126 61.832 175.776 61.423 L 175.776 61.423 L 175.776 61.423 Q 175.427 61.014 174.806 61.014 L 174.806 61.014 L 174.806 61.014 Q 174.205 61.014 173.786 61.444 L 173.786 61.444 L 173.786 61.444 Q 173.366 61.874 173.268 62.567 L 173.268 62.567 Z  M 182.815 62.485 L 182.815 65.727 L 181.966 65.727 L 181.966 62.702 L 181.966 62.702 Q 181.966 61.014 180.733 61.014 L 180.733 61.014 L 180.733 61.014 Q 180.096 61.014 179.679 61.493 L 179.679 61.493 L 179.679 61.493 Q 179.262 61.972 179.262 62.702 L 179.262 62.702 L 179.262 65.727 L 178.413 65.727 L 178.413 60.424 L 179.262 60.424 L 179.262 61.304 L 179.283 61.304 L 179.283 61.304 Q 179.884 60.299 181.023 60.299 L 181.023 60.299 L 181.023 60.299 Q 181.893 60.299 182.354 60.861 L 182.354 60.861 L 182.354 60.861 Q 182.815 61.423 182.815 62.485 L 182.815 62.485 Z  M 187.002 64.95 L 187.002 65.675 L 187.002 65.675 Q 186.702 65.84 186.21 65.84 L 186.21 65.84 L 186.21 65.84 Q 184.817 65.84 184.817 64.287 L 184.817 64.287 L 184.817 61.149 L 183.905 61.149 L 183.905 60.424 L 184.817 60.424 L 184.817 59.129 L 185.666 58.854 L 185.666 60.424 L 187.002 60.424 L 187.002 61.149 L 185.666 61.149 L 185.666 64.137 L 185.666 64.137 Q 185.666 64.67 185.848 64.898 L 185.848 64.898 L 185.848 64.898 Q 186.029 65.126 186.448 65.126 L 186.448 65.126 L 186.448 65.126 Q 186.769 65.126 187.002 64.95 L 187.002 64.95 Z  M 71.06 64.572 L 71.06 65.416 L 71.06 65.416 Q 70.237 65.851 69.01 65.851 L 69.01 65.851 L 69.01 65.851 Q 67.425 65.851 66.472 64.831 L 66.472 64.831 L 66.472 64.831 Q 65.519 63.81 65.519 62.153 L 65.519 62.153 L 65.519 62.153 Q 65.519 60.372 66.591 59.274 L 66.591 59.274 L 66.591 59.274 Q 67.663 58.176 69.31 58.176 L 69.31 58.176 L 69.31 58.176 Q 70.366 58.176 71.06 58.481 L 71.06 58.481 L 71.06 59.408 L 71.06 59.408 Q 70.263 58.963 69.299 58.963 L 69.299 58.963 L 69.299 58.963 Q 68.02 58.963 67.225 59.818 L 67.225 59.818 L 67.225 59.818 Q 66.431 60.672 66.431 62.101 L 66.431 62.101 L 66.431 62.101 Q 66.431 63.458 67.173 64.263 L 67.173 64.263 L 67.173 64.263 Q 67.917 65.069 69.123 65.069 L 69.123 65.069 L 69.123 65.069 Q 70.242 65.069 71.06 64.572 L 71.06 64.572 Z  M 74.802 65.851 L 74.802 65.851 L 74.802 65.851 Q 73.627 65.851 72.925 65.108 L 72.925 65.108 L 72.925 65.108 Q 72.223 64.364 72.223 63.137 L 72.223 63.137 L 72.223 63.137 Q 72.223 61.801 72.953 61.05 L 72.953 61.05 L 72.953 61.05 Q 73.684 60.299 74.926 60.299 L 74.926 60.299 L 74.926 60.299 Q 76.113 60.299 76.778 61.029 L 76.778 61.029 L 76.778 61.029 Q 77.443 61.76 77.443 63.054 L 77.443 63.054 L 77.443 63.054 Q 77.443 64.323 76.726 65.087 L 76.726 65.087 L 76.726 65.087 Q 76.009 65.851 74.802 65.851 Z  M 74.864 61.014 L 74.864 61.014 L 74.864 61.014 Q 74.046 61.014 73.57 61.571 L 73.57 61.571 L 73.57 61.571 Q 73.093 62.127 73.093 63.106 L 73.093 63.106 L 73.093 63.106 Q 73.093 64.049 73.575 64.592 L 73.575 64.592 L 73.575 64.592 Q 74.056 65.136 74.864 65.136 L 74.864 65.136 L 74.864 65.136 Q 75.688 65.136 76.13 64.603 L 76.13 64.603 L 76.13 64.603 Q 76.573 64.07 76.573 63.085 L 76.573 63.085 L 76.573 63.085 Q 76.573 62.091 76.13 61.552 L 76.13 61.552 L 76.13 61.552 Q 75.688 61.014 74.864 61.014 Z  M 83.329 62.485 L 83.329 65.727 L 82.48 65.727 L 82.48 62.702 L 82.48 62.702 Q 82.48 61.014 81.248 61.014 L 81.248 61.014 L 81.248 61.014 Q 80.61 61.014 80.194 61.493 L 80.194 61.493 L 80.194 61.493 Q 79.777 61.972 79.777 62.702 L 79.777 62.702 L 79.777 65.727 L 78.927 65.727 L 78.927 60.424 L 79.777 60.424 L 79.777 61.304 L 79.798 61.304 L 79.798 61.304 Q 80.398 60.299 81.537 60.299 L 81.537 60.299 L 81.537 60.299 Q 82.408 60.299 82.869 60.861 L 82.869 60.861 L 82.869 60.861 Q 83.329 61.423 83.329 62.485 L 83.329 62.485 Z  M 87.517 64.95 L 87.517 65.675 L 87.517 65.675 Q 87.216 65.84 86.725 65.84 L 86.725 65.84 L 86.725 65.84 Q 85.331 65.84 85.331 64.287 L 85.331 64.287 L 85.331 61.149 L 84.42 61.149 L 84.42 60.424 L 85.331 60.424 L 85.331 59.129 L 86.181 58.854 L 86.181 60.424 L 87.517 60.424 L 87.517 61.149 L 86.181 61.149 L 86.181 64.137 L 86.181 64.137 Q 86.181 64.67 86.362 64.898 L 86.362 64.898 L 86.362 64.898 Q 86.543 65.126 86.963 65.126 L 86.963 65.126 L 86.963 65.126 Q 87.284 65.126 87.517 64.95 L 87.517 64.95 Z  M 89.213 59.077 L 89.213 59.077 L 89.213 59.077 Q 88.985 59.077 88.825 58.922 L 88.825 58.922 L 88.825 58.922 Q 88.664 58.766 88.664 58.528 L 88.664 58.528 L 88.664 58.528 Q 88.664 58.29 88.825 58.132 L 88.825 58.132 L 88.825 58.132 Q 88.985 57.974 89.213 57.974 L 89.213 57.974 L 89.213 57.974 Q 89.446 57.974 89.609 58.132 L 89.609 58.132 L 89.609 58.132 Q 89.772 58.29 89.772 58.528 L 89.772 58.528 L 89.772 58.528 Q 89.772 58.756 89.609 58.917 L 89.609 58.917 L 89.609 58.917 Q 89.446 59.077 89.213 59.077 Z  M 89.628 60.424 L 89.628 65.727 L 88.778 65.727 L 88.778 60.424 L 89.628 60.424 Z  M 95.876 62.485 L 95.876 65.727 L 95.027 65.727 L 95.027 62.702 L 95.027 62.702 Q 95.027 61.014 93.794 61.014 L 93.794 61.014 L 93.794 61.014 Q 93.157 61.014 92.74 61.493 L 92.74 61.493 L 92.74 61.493 Q 92.323 61.972 92.323 62.702 L 92.323 62.702 L 92.323 65.727 L 91.474 65.727 L 91.474 60.424 L 92.323 60.424 L 92.323 61.304 L 92.344 61.304 L 92.344 61.304 Q 92.945 60.299 94.084 60.299 L 94.084 60.299 L 94.084 60.299 Q 94.954 60.299 95.415 60.861 L 95.415 60.861 L 95.415 60.861 Q 95.876 61.423 95.876 62.485 L 95.876 62.485 Z  M 101.892 60.424 L 101.892 65.727 L 101.042 65.727 L 101.042 64.887 L 101.022 64.887 L 101.022 64.887 Q 100.493 65.851 99.385 65.851 L 99.385 65.851 L 99.385 65.851 Q 97.49 65.851 97.49 63.593 L 97.49 63.593 L 97.49 60.424 L 98.334 60.424 L 98.334 63.458 L 98.334 63.458 Q 98.334 65.136 99.618 65.136 L 99.618 65.136 L 99.618 65.136 Q 100.24 65.136 100.641 64.678 L 100.641 64.678 L 100.641 64.678 Q 101.042 64.22 101.042 63.479 L 101.042 63.479 L 101.042 60.424 L 101.892 60.424 Z  M 105.95 65.851 L 105.95 65.851 L 105.95 65.851 Q 104.774 65.851 104.072 65.108 L 104.072 65.108 L 104.072 65.108 Q 103.371 64.364 103.371 63.137 L 103.371 63.137 L 103.371 63.137 Q 103.371 61.801 104.101 61.05 L 104.101 61.05 L 104.101 61.05 Q 104.831 60.299 106.074 60.299 L 106.074 60.299 L 106.074 60.299 Q 107.26 60.299 107.925 61.029 L 107.925 61.029 L 107.925 61.029 Q 108.59 61.76 108.59 63.054 L 108.59 63.054 L 108.59 63.054 Q 108.59 64.323 107.874 65.087 L 107.874 65.087 L 107.874 65.087 Q 107.156 65.851 105.95 65.851 Z  M 106.012 61.014 L 106.012 61.014 L 106.012 61.014 Q 105.194 61.014 104.717 61.571 L 104.717 61.571 L 104.717 61.571 Q 104.241 62.127 104.241 63.106 L 104.241 63.106 L 104.241 63.106 Q 104.241 64.049 104.722 64.592 L 104.722 64.592 L 104.722 64.592 Q 105.204 65.136 106.012 65.136 L 106.012 65.136 L 106.012 65.136 Q 106.835 65.136 107.278 64.603 L 107.278 64.603 L 107.278 64.603 Q 107.721 64.07 107.721 63.085 L 107.721 63.085 L 107.721 63.085 Q 107.721 62.091 107.278 61.552 L 107.278 61.552 L 107.278 61.552 Q 106.835 61.014 106.012 61.014 Z  M 114.363 60.424 L 114.363 65.727 L 113.513 65.727 L 113.513 64.887 L 113.493 64.887 L 113.493 64.887 Q 112.964 65.851 111.856 65.851 L 111.856 65.851 L 111.856 65.851 Q 109.961 65.851 109.961 63.593 L 109.961 63.593 L 109.961 60.424 L 110.805 60.424 L 110.805 63.458 L 110.805 63.458 Q 110.805 65.136 112.089 65.136 L 112.089 65.136 L 112.089 65.136 Q 112.711 65.136 113.112 64.678 L 113.112 64.678 L 113.112 64.678 Q 113.513 64.22 113.513 63.479 L 113.513 63.479 L 113.513 60.424 L 114.363 60.424 Z  M 115.883 65.535 L 115.883 65.535 L 115.883 64.624 L 115.883 64.624 Q 116.577 65.136 117.411 65.136 L 117.411 65.136 L 117.411 65.136 Q 118.53 65.136 118.53 64.39 L 118.53 64.39 L 118.53 64.39 Q 118.53 64.178 118.434 64.03 L 118.434 64.03 L 118.434 64.03 Q 118.338 63.883 118.175 63.769 L 118.175 63.769 L 118.175 63.769 Q 118.012 63.655 117.791 63.564 L 117.791 63.564 L 117.791 63.564 Q 117.571 63.474 117.318 63.375 L 117.318 63.375 L 117.318 63.375 Q 116.965 63.235 116.699 63.093 L 116.699 63.093 L 116.699 63.093 Q 116.432 62.951 116.254 62.772 L 116.254 62.772 L 116.254 62.772 Q 116.075 62.594 115.984 62.365 L 115.984 62.365 L 115.984 62.365 Q 115.893 62.138 115.893 61.832 L 115.893 61.832 L 115.893 61.832 Q 115.893 61.459 116.064 61.172 L 116.064 61.172 L 116.064 61.172 Q 116.235 60.884 116.52 60.69 L 116.52 60.69 L 116.52 60.69 Q 116.805 60.496 117.17 60.398 L 117.17 60.398 L 117.17 60.398 Q 117.535 60.299 117.923 60.299 L 117.923 60.299 L 117.923 60.299 Q 118.612 60.299 119.156 60.537 L 119.156 60.537 L 119.156 61.397 L 119.156 61.397 Q 118.571 61.014 117.81 61.014 L 117.81 61.014 L 117.81 61.014 Q 117.571 61.014 117.38 61.068 L 117.38 61.068 L 117.38 61.068 Q 117.188 61.123 117.051 61.221 L 117.051 61.221 L 117.051 61.221 Q 116.914 61.32 116.839 61.457 L 116.839 61.457 L 116.839 61.457 Q 116.764 61.594 116.764 61.76 L 116.764 61.76 L 116.764 61.76 Q 116.764 61.967 116.839 62.107 L 116.839 62.107 L 116.839 62.107 Q 116.914 62.247 117.059 62.355 L 117.059 62.355 L 117.059 62.355 Q 117.204 62.464 117.411 62.552 L 117.411 62.552 L 117.411 62.552 Q 117.618 62.64 117.882 62.744 L 117.882 62.744 L 117.882 62.744 Q 118.234 62.878 118.514 63.021 L 118.514 63.021 L 118.514 63.021 Q 118.794 63.163 118.99 63.342 L 118.99 63.342 L 118.99 63.342 Q 119.187 63.521 119.293 63.753 L 119.293 63.753 L 119.293 63.753 Q 119.399 63.986 119.399 64.308 L 119.399 64.308 L 119.399 64.308 Q 119.399 64.701 119.226 64.991 L 119.226 64.991 L 119.226 64.991 Q 119.053 65.281 118.763 65.473 L 118.763 65.473 L 118.763 65.473 Q 118.472 65.664 118.094 65.758 L 118.094 65.758 L 118.094 65.758 Q 117.716 65.851 117.302 65.851 L 117.302 65.851 L 117.302 65.851 Q 116.484 65.851 115.883 65.535 Z  M 54.469 59.077 L 54.469 59.077 L 54.469 59.077 Q 54.241 59.077 54.08 58.922 L 54.08 58.922 L 54.08 58.922 Q 53.92 58.766 53.92 58.528 L 53.92 58.528 L 53.92 58.528 Q 53.92 58.29 54.08 58.132 L 54.08 58.132 L 54.08 58.132 Q 54.241 57.974 54.469 57.974 L 54.469 57.974 L 54.469 57.974 Q 54.702 57.974 54.865 58.132 L 54.865 58.132 L 54.865 58.132 Q 55.028 58.29 55.028 58.528 L 55.028 58.528 L 55.028 58.528 Q 55.028 58.756 54.865 58.917 L 54.865 58.917 L 54.865 58.917 Q 54.702 59.077 54.469 59.077 Z  M 54.883 60.424 L 54.883 65.727 L 54.034 65.727 L 54.034 60.424 L 54.883 60.424 Z  M 61.132 62.485 L 61.132 65.727 L 60.282 65.727 L 60.282 62.702 L 60.282 62.702 Q 60.282 61.014 59.05 61.014 L 59.05 61.014 L 59.05 61.014 Q 58.413 61.014 57.996 61.493 L 57.996 61.493 L 57.996 61.493 Q 57.579 61.972 57.579 62.702 L 57.579 62.702 L 57.579 65.727 L 56.73 65.727 L 56.73 60.424 L 57.579 60.424 L 57.579 61.304 L 57.6 61.304 L 57.6 61.304 Q 58.201 60.299 59.34 60.299 L 59.34 60.299 L 59.34 60.299 Q 60.21 60.299 60.671 60.861 L 60.671 60.861 L 60.671 60.861 Q 61.132 61.423 61.132 62.485 L 61.132 62.485 Z  M 13.592 62.92 L 12.613 62.92 L 12.613 65.727 L 11.743 65.727 L 11.743 58.3 L 13.784 58.3 L 13.784 58.3 Q 14.975 58.3 15.63 58.88 L 15.63 58.88 L 15.63 58.88 Q 16.285 59.46 16.285 60.516 L 16.285 60.516 L 16.285 60.516 Q 16.285 61.573 15.558 62.247 L 15.558 62.247 L 15.558 62.247 Q 14.83 62.92 13.592 62.92 L 13.592 62.92 Z  M 13.634 59.087 L 12.613 59.087 L 12.613 62.132 L 13.525 62.132 L 13.525 62.132 Q 14.426 62.132 14.9 61.721 L 14.9 61.721 L 14.9 61.721 Q 15.374 61.309 15.374 60.558 L 15.374 60.558 L 15.374 60.558 Q 15.374 59.087 13.634 59.087 L 13.634 59.087 Z  M 21.493 62.278 L 21.493 65.727 L 20.643 65.727 L 20.643 64.898 L 20.623 64.898 L 20.623 64.898 Q 20.068 65.851 18.991 65.851 L 18.991 65.851 L 18.991 65.851 Q 18.199 65.851 17.751 65.431 L 17.751 65.431 L 17.751 65.431 Q 17.303 65.012 17.303 64.318 L 17.303 64.318 L 17.303 64.318 Q 17.303 62.832 19.054 62.588 L 19.054 62.588 L 20.643 62.365 L 20.643 62.365 Q 20.643 61.014 19.551 61.014 L 19.551 61.014 L 19.551 61.014 Q 18.593 61.014 17.821 61.666 L 17.821 61.666 L 17.821 60.796 L 17.821 60.796 Q 18.603 60.299 19.623 60.299 L 19.623 60.299 L 19.623 60.299 Q 21.493 60.299 21.493 62.278 L 21.493 62.278 Z  M 20.643 63.572 L 20.643 63.044 L 19.364 63.22 L 19.364 63.22 Q 18.774 63.303 18.473 63.512 L 18.473 63.512 L 18.473 63.512 Q 18.173 63.722 18.173 64.256 L 18.173 64.256 L 18.173 64.256 Q 18.173 64.644 18.45 64.89 L 18.45 64.89 L 18.45 64.89 Q 18.727 65.136 19.188 65.136 L 19.188 65.136 L 19.188 65.136 Q 19.82 65.136 20.232 64.693 L 20.232 64.693 L 20.232 64.693 Q 20.643 64.251 20.643 63.572 L 20.643 63.572 Z  M 25.986 60.403 L 25.986 61.283 L 25.986 61.283 Q 25.763 61.112 25.344 61.112 L 25.344 61.112 L 25.344 61.112 Q 24.8 61.112 24.435 61.625 L 24.435 61.625 L 24.435 61.625 Q 24.07 62.138 24.07 63.023 L 24.07 63.023 L 24.07 65.727 L 23.22 65.727 L 23.22 60.424 L 24.07 60.424 L 24.07 61.516 L 24.09 61.516 L 24.09 61.516 Q 24.271 60.957 24.644 60.644 L 24.644 60.644 L 24.644 60.644 Q 25.017 60.33 25.478 60.33 L 25.478 60.33 L 25.478 60.33 Q 25.81 60.33 25.986 60.403 L 25.986 60.403 Z  M 29.495 64.95 L 29.495 65.675 L 29.495 65.675 Q 29.194 65.84 28.702 65.84 L 28.702 65.84 L 28.702 65.84 Q 27.309 65.84 27.309 64.287 L 27.309 64.287 L 27.309 61.149 L 26.398 61.149 L 26.398 60.424 L 27.309 60.424 L 27.309 59.129 L 28.158 58.854 L 28.158 60.424 L 29.495 60.424 L 29.495 61.149 L 28.158 61.149 L 28.158 64.137 L 28.158 64.137 Q 28.158 64.67 28.34 64.898 L 28.34 64.898 L 28.34 64.898 Q 28.521 65.126 28.941 65.126 L 28.941 65.126 L 28.941 65.126 Q 29.262 65.126 29.495 64.95 L 29.495 64.95 Z  M 35.158 62.485 L 35.158 65.727 L 34.309 65.727 L 34.309 62.702 L 34.309 62.702 Q 34.309 61.014 33.076 61.014 L 33.076 61.014 L 33.076 61.014 Q 32.439 61.014 32.022 61.493 L 32.022 61.493 L 32.022 61.493 Q 31.605 61.972 31.605 62.702 L 31.605 62.702 L 31.605 65.727 L 30.756 65.727 L 30.756 60.424 L 31.605 60.424 L 31.605 61.304 L 31.626 61.304 L 31.626 61.304 Q 32.227 60.299 33.366 60.299 L 33.366 60.299 L 33.366 60.299 Q 34.236 60.299 34.697 60.861 L 34.697 60.861 L 34.697 60.861 Q 35.158 61.423 35.158 62.485 L 35.158 62.485 Z  M 41.148 62.842 L 41.148 63.287 L 37.403 63.287 L 37.403 63.287 Q 37.424 64.173 37.88 64.655 L 37.88 64.655 L 37.88 64.655 Q 38.336 65.136 39.133 65.136 L 39.133 65.136 L 39.133 65.136 Q 40.029 65.136 40.78 64.546 L 40.78 64.546 L 40.78 65.343 L 40.78 65.343 Q 40.081 65.851 38.931 65.851 L 38.931 65.851 L 38.931 65.851 Q 37.807 65.851 37.165 65.128 L 37.165 65.128 L 37.165 65.128 Q 36.523 64.406 36.523 63.096 L 36.523 63.096 L 36.523 63.096 Q 36.523 61.858 37.225 61.079 L 37.225 61.079 L 37.225 61.079 Q 37.927 60.299 38.967 60.299 L 38.967 60.299 L 38.967 60.299 Q 40.008 60.299 40.578 60.973 L 40.578 60.973 L 40.578 60.973 Q 41.148 61.646 41.148 62.842 L 41.148 62.842 Z  M 37.414 62.567 L 40.278 62.567 L 40.278 62.567 Q 40.273 61.832 39.923 61.423 L 39.923 61.423 L 39.923 61.423 Q 39.573 61.014 38.952 61.014 L 38.952 61.014 L 38.952 61.014 Q 38.351 61.014 37.932 61.444 L 37.932 61.444 L 37.932 61.444 Q 37.512 61.874 37.414 62.567 L 37.414 62.567 Z  M 45.324 60.403 L 45.324 61.283 L 45.324 61.283 Q 45.102 61.112 44.683 61.112 L 44.683 61.112 L 44.683 61.112 Q 44.139 61.112 43.773 61.625 L 43.773 61.625 L 43.773 61.625 Q 43.409 62.138 43.409 63.023 L 43.409 63.023 L 43.409 65.727 L 42.559 65.727 L 42.559 60.424 L 43.409 60.424 L 43.409 61.516 L 43.429 61.516 L 43.429 61.516 Q 43.611 60.957 43.983 60.644 L 43.983 60.644 L 43.983 60.644 Q 44.356 60.33 44.817 60.33 L 44.817 60.33 L 44.817 60.33 Q 45.148 60.33 45.324 60.403 L 45.324 60.403 Z  M 46.052 65.535 L 46.052 65.535 L 46.052 64.624 L 46.052 64.624 Q 46.747 65.136 47.581 65.136 L 47.581 65.136 L 47.581 65.136 Q 48.699 65.136 48.699 64.39 L 48.699 64.39 L 48.699 64.39 Q 48.699 64.178 48.603 64.03 L 48.603 64.03 L 48.603 64.03 Q 48.508 63.883 48.344 63.769 L 48.344 63.769 L 48.344 63.769 Q 48.181 63.655 47.961 63.564 L 47.961 63.564 L 47.961 63.564 Q 47.741 63.474 47.487 63.375 L 47.487 63.375 L 47.487 63.375 Q 47.135 63.235 46.868 63.093 L 46.868 63.093 L 46.868 63.093 Q 46.601 62.951 46.423 62.772 L 46.423 62.772 L 46.423 62.772 Q 46.244 62.594 46.153 62.365 L 46.153 62.365 L 46.153 62.365 Q 46.063 62.138 46.063 61.832 L 46.063 61.832 L 46.063 61.832 Q 46.063 61.459 46.234 61.172 L 46.234 61.172 L 46.234 61.172 Q 46.405 60.884 46.69 60.69 L 46.69 60.69 L 46.69 60.69 Q 46.974 60.496 47.34 60.398 L 47.34 60.398 L 47.34 60.398 Q 47.704 60.299 48.093 60.299 L 48.093 60.299 L 48.093 60.299 Q 48.782 60.299 49.326 60.537 L 49.326 60.537 L 49.326 61.397 L 49.326 61.397 Q 48.74 61.014 47.979 61.014 L 47.979 61.014 L 47.979 61.014 Q 47.741 61.014 47.549 61.068 L 47.549 61.068 L 47.549 61.068 Q 47.358 61.123 47.22 61.221 L 47.22 61.221 L 47.22 61.221 Q 47.083 61.32 47.008 61.457 L 47.008 61.457 L 47.008 61.457 Q 46.933 61.594 46.933 61.76 L 46.933 61.76 L 46.933 61.76 Q 46.933 61.967 47.008 62.107 L 47.008 62.107 L 47.008 62.107 Q 47.083 62.247 47.228 62.355 L 47.228 62.355 L 47.228 62.355 Q 47.373 62.464 47.581 62.552 L 47.581 62.552 L 47.581 62.552 Q 47.788 62.64 48.052 62.744 L 48.052 62.744 L 48.052 62.744 Q 48.404 62.878 48.684 63.021 L 48.684 63.021 L 48.684 63.021 Q 48.963 63.163 49.16 63.342 L 49.16 63.342 L 49.16 63.342 Q 49.357 63.521 49.463 63.753 L 49.463 63.753 L 49.463 63.753 Q 49.569 63.986 49.569 64.308 L 49.569 64.308 L 49.569 64.308 Q 49.569 64.701 49.396 64.991 L 49.396 64.991 L 49.396 64.991 Q 49.222 65.281 48.932 65.473 L 48.932 65.473 L 48.932 65.473 Q 48.642 65.664 48.264 65.758 L 48.264 65.758 L 48.264 65.758 Q 47.886 65.851 47.472 65.851 L 47.472 65.851 L 47.472 65.851 Q 46.653 65.851 46.052 65.535 Z " fill-rule="evenodd" fill="rgb(138,140,142)"/><path d=" M 28.199 5.023 L 28.802 4.421 L 30.002 5.621 L 29.4 6.219 L 13.915 21.704 L 13.317 22.307 L 12.116 21.106 L 12.714 20.508 L 28.199 5.023 Z " fill="rgb(255,0,0)"/><path d=" M 42.967 15.29 L 43.476 15.667 L 42.721 16.694 L 42.212 16.316 L 28.424 6.135 L 27.911 5.757 L 28.666 4.73 L 29.179 5.108 L 42.967 15.29 Z " fill="rgb(0,127,186)"/><path d=" M 52.538 5.167 L 52.992 4.722 L 53.883 5.63 L 53.429 6.075 L 43.035 16.257 L 42.577 16.702 L 41.69 15.795 L 42.144 15.349 L 52.538 5.167 Z " fill="rgb(18,255,0)"/><path d=" M 8.012 21.106 C 8.012 18.179 10.389 15.803 13.315 15.803 C 16.242 15.803 18.618 18.179 18.618 21.106 C 18.618 24.033 16.242 26.409 13.315 26.409 C 10.389 26.409 8.012 24.033 8.012 21.106 Z " fill="rgb(255,0,0)"/><path d=" M 23.921 5.621 C 23.921 2.694 26.298 0.318 29.224 0.318 C 32.151 0.318 34.528 2.694 34.528 5.621 C 34.528 8.548 32.151 10.924 29.224 10.924 C 26.298 10.924 23.921 8.548 23.921 5.621 Z " fill="rgb(0,127,186)"/><path d=" M 37.285 15.803 C 37.285 12.876 39.661 10.5 42.588 10.5 C 45.515 10.5 47.891 12.876 47.891 15.803 C 47.891 18.73 45.515 21.106 42.588 21.106 C 39.661 21.106 37.285 18.73 37.285 15.803 Z " fill="rgb(18,255,0)"/><path d=" M 47.679 5.621 C 47.679 2.694 50.055 0.318 52.982 0.318 C 55.909 0.318 58.285 2.694 58.285 5.621 C 58.285 8.548 55.909 10.924 52.982 10.924 C 50.055 10.924 47.679 8.548 47.679 5.621 Z " fill="rgb(148,155,148)"/></g></g></g></g></svg>