<svg xmlns="http://www.w3.org/2000/svg" width="241.585" height="20" viewBox="0 0 241.585 20">
  <g id="DatalyzerLogo_white" transform="translate(95)">
    <path id="Path_34" data-name="Path 34" d="M230.772,17.434v6.292h3.121V21.238c0-2.4.008-2.488.16-2.488.253,0,.641.523,1.6,2.117.489.81,1.088,1.78,1.332,2.159l.447.7h1.9c1.046,0,1.9-.017,1.9-.042,0-.143-2.488-4.023-3.062-4.774l-.3-.388.4-.186a3.605,3.605,0,0,0,1.872-2.227,4.236,4.236,0,0,0-.16-2.767,3.611,3.611,0,0,0-1.485-1.628c-.97-.472-1.206-.5-4.589-.54l-3.146-.034Zm4.783-3.838c.759.11,1.08.3,1.3.742a1.521,1.521,0,0,1-.068,1.443c-.32.43-.725.557-1.9.59l-1.08.034V13.521h.616A9.563,9.563,0,0,1,235.555,13.6Zm-15.916,3.846v6.284h8.182V21.112h-4.976v-2.7h3.627v-2.53h-3.627V13.689h4.369l.177-1c.1-.54.2-1.113.228-1.265l.051-.27h-8.03Zm-10.991-6.225c-.025.042-.177.523-.346,1.08s-.329,1.08-.354,1.156c-.042.143.135.152,2.539.169l2.589.025-.287.38c-.16.211-1.383,1.991-2.708,3.956l-2.421,3.576v2.168h8.73L216.8,22.6c.228-.607.43-1.164.447-1.223.034-.076-.548-.1-2.75-.1h-2.792l2.657-3.981,2.657-3.99V11.159h-4.167C210.562,11.159,208.664,11.184,208.647,11.218Zm-13.445.3c.11.2,1.088,1.872,2.159,3.72l1.948,3.357v5.137h3.29V18.581l2.2-3.644c1.215-2.007,2.227-3.677,2.244-3.72a14.111,14.111,0,0,0-1.864-.059h-1.906l-.894,1.788c-.5.987-.987,2.007-1.088,2.261l-.194.456-1.122-2.252-1.13-2.252h-3.855Zm-6.874,5.921L188.3,23.71l.211.034c.118.017,1.788.017,3.72,0l3.509-.025.312-1.2c.169-.658.3-1.248.3-1.307a8.074,8.074,0,0,0-2.362-.1h-2.361V11.159h-3.29ZM178.7,11.513c-.11.312-4.007,10.931-4.192,11.412l-.312.843,1.712-.025,1.7-.025.144-.4c.076-.219.27-.8.43-1.308l.3-.9,1.83.017,1.822.025.27.759c.143.413.557,1.7.6,1.737a17.235,17.235,0,0,0,2.708.084c.675-.009.7-.017.666-.2a1.368,1.368,0,0,0-.093-.312c-.025-.067-.978-2.8-2.1-6.073L182.129,11.2l-1.645-.025-1.653-.017Zm2.151,5c.228.97.439,1.856.464,1.957.042.194.042.194-.987.194s-1.029,0-.987-.194c.253-1.156,1.038-4.023,1.054-3.9C180.417,14.668,180.619,15.536,180.855,16.515Zm-16.043-4.091v1.265h3.3l-.009,4.985c-.008,2.741,0,4.994.017,5.01s.759.042,1.653.051l1.619.034V13.689h3.087l.279-1.164c.16-.633.3-1.206.329-1.265.025-.076-1.029-.1-5.12-.1h-5.154Zm-9.447,4.369c-1.13,3.1-2.185,5.98-2.269,6.183s-.185.455-.219.565l-.051.185,1.7-.017,1.7-.025.422-1.29.43-1.282h3.635l.228.641c.135.354.388,1.054.5,1.383l.2.59h1.7c1.763,0,1.746,0,1.611-.337a10.367,10.367,0,0,1-.506-1.518c.025,0,.009-.051-.034-.11s-.894-2.463-1.889-5.348l-1.805-5.255h-3.29Zm4.209.245.4,1.628h-1.046c-1.046,0-1.046,0-1-.194.228-.81.978-3.83.987-3.973.009-.093.068.067.135.371S159.355,16.152,159.574,17.038Zm-18.126.388v6.292l.784.025c.422.017,1.7,0,2.843-.025,2.193-.059,2.623-.127,3.509-.548a6.421,6.421,0,0,0,1.51-1.088,6.308,6.308,0,0,0,1.62-5.01,6.88,6.88,0,0,0-.692-3,4.934,4.934,0,0,0-3.306-2.674,13.377,13.377,0,0,0-3.458-.219l-2.809-.034Zm5.381-3.636c.97.5,1.451,2.067,1.341,4.369a3.86,3.86,0,0,1-.708,2.438c-.439.515-.692.6-1.839.6h-.97V13.5l.894.051A2.776,2.776,0,0,1,146.829,13.79Z" transform="translate(-94.646 -7.455)" fill="#fff" fill-rule="evenodd"/>
    <g id="Group_40" data-name="Group 40">
      <path id="Path_35" data-name="Path 35" d="M21.835,9.966,22.3,9.5l.92.92-.462.459-11.87,11.87-.459.462-.92-.92.459-.459Z" transform="translate(-6.361 -6.359)" fill="#fff"/>
      <path id="Path_36" data-name="Path 36" d="M57.641,18.316l.39.29-.579.787-.39-.289L46.492,11.3l-.393-.29.579-.787.393.289Z" transform="translate(-30.846 -6.84)" fill="#fff"/>
      <path id="Path_37" data-name="Path 37" d="M86.338,10.543l.348-.341.683.7-.348.341-7.967,7.805-.351.341-.68-.7.348-.341Z" transform="translate(-52.206 -6.826)" fill="#fff"/>
      <circle id="Ellipse_53" data-name="Ellipse 53" cx="4.065" cy="4.065" r="4.065" transform="translate(0 11.87)" fill="#fff"/>
      <circle id="Ellipse_54" data-name="Ellipse 54" cx="4.065" cy="4.065" r="4.065" transform="translate(12.195)" fill="#fff"/>
      <circle id="Ellipse_55" data-name="Ellipse 55" cx="4.065" cy="4.065" r="4.065" transform="translate(22.439 7.805)" fill="#fff"/>
      <circle id="Ellipse_56" data-name="Ellipse 56" cx="4.065" cy="4.065" r="4.065" transform="translate(30.407)" fill="#fff"/>
    </g>
  </g>
</svg>
