<svg width="546" height="86" viewBox="0 0 546 86" fill="none" xmlns="http://www.w3.org/2000/svg">
<path d="M393.824 15.7712V20.137C393.857 21.7775 393.65 23.4139 393.213 24.9953C392.871 26.2148 392.283 27.3514 391.485 28.3347C390.769 29.1951 389.847 29.8612 388.805 30.2713C387.7 30.6925 386.526 30.9009 385.344 30.8855C384.161 30.9008 382.985 30.6924 381.88 30.2713C380.836 29.8594 379.912 29.1937 379.191 28.3347C378.388 27.3526 377.795 26.216 377.45 24.9953C377.005 23.4151 376.796 21.7781 376.829 20.137V15.7712C376.797 14.1308 377.003 12.4943 377.441 10.913C377.782 9.69734 378.373 8.56641 379.177 7.59297C379.899 6.74394 380.818 6.08546 381.855 5.67567C382.957 5.25444 384.13 5.04602 385.31 5.06147C386.493 5.04691 387.668 5.25528 388.774 5.67567C389.813 6.08457 390.736 6.74308 391.46 7.59297C392.265 8.56712 392.859 9.69763 393.204 10.913C393.649 12.4932 393.858 14.1302 393.824 15.7712ZM388.841 20.7955V15.063C388.856 14.1196 388.777 13.1771 388.605 12.2493C388.493 11.5983 388.259 10.9741 387.916 10.4094C387.648 9.97623 387.264 9.62646 386.808 9.3996C386.337 9.18656 385.824 9.08253 385.308 9.09527C384.799 9.08583 384.294 9.19177 383.832 9.40514C383.374 9.62897 382.989 9.97944 382.724 10.415C382.386 10.9815 382.154 11.605 382.04 12.2548C381.869 13.1826 381.79 14.1251 381.805 15.0685V20.7955C381.79 21.7512 381.871 22.7059 382.049 23.6452C382.168 24.3042 382.402 24.9373 382.741 25.5154C383.001 25.9597 383.386 26.3176 383.848 26.5446C384.315 26.7574 384.823 26.8632 385.335 26.8545C385.847 26.863 386.354 26.7571 386.819 26.5446C387.283 26.3194 387.668 25.961 387.927 25.5154C388.258 24.9359 388.485 24.3029 388.597 23.6452C388.768 22.7053 388.847 21.7508 388.832 20.7955H388.841ZM361.086 5.39624V21.0722H363.938V25.0921H361.086V30.5286H356.102V25.0921H345.788L345.564 21.952L356.049 5.39624H361.086ZM355.764 12.7694L350.528 21.0694H356.091V12.1967L355.762 12.7666L355.764 12.7694ZM367.08 28.0801C367.078 27.7174 367.145 27.3575 367.28 27.0205C367.407 26.7005 367.601 26.4117 367.85 26.1739C368.108 25.9339 368.41 25.746 368.739 25.6206C369.109 25.4781 369.503 25.4076 369.899 25.4131C370.297 25.4083 370.693 25.4787 371.065 25.6206C371.397 25.7452 371.702 25.9331 371.962 26.1739C372.211 26.4117 372.405 26.7005 372.532 27.0205C372.667 27.3575 372.735 27.7173 372.732 28.0801C372.735 28.4403 372.667 28.7975 372.532 29.1315C372.403 29.4456 372.209 29.7286 371.962 29.9615C371.703 30.2048 371.398 30.393 371.065 30.5148C370.691 30.6497 370.296 30.7163 369.899 30.7112C369.504 30.7169 369.11 30.6504 368.739 30.5148C368.408 30.3922 368.106 30.204 367.85 29.9615C367.603 29.7286 367.409 29.4456 367.28 29.1315C367.146 28.7973 367.076 28.4401 367.08 28.0801Z" fill="#30B9EF"/>
<path fill-rule="evenodd" clip-rule="evenodd" d="M168.972 65.0871H163.545C161.706 65.1108 159.879 64.7879 158.159 64.1353C156.596 63.5381 155.173 62.6255 153.978 61.4544C152.796 60.2731 151.878 58.8549 151.284 57.2934C150.629 55.5617 150.306 53.722 150.332 51.8707V23.3187C150.306 21.4674 150.629 19.6278 151.284 17.896C151.882 16.3377 152.803 14.9234 153.987 13.746C155.179 12.5769 156.599 11.6653 158.159 11.0679C159.879 10.4153 161.706 10.0924 163.545 10.1162H171.261C173.088 10.0947 174.901 10.4176 176.608 11.0679C178.164 11.6633 179.578 12.5764 180.761 13.7488C181.935 14.9304 182.849 16.3439 183.444 17.8988C184.1 19.6305 184.423 21.4702 184.397 23.3215V51.8735C184.423 53.7248 184.1 55.5644 183.444 57.2961C182.846 58.8545 181.925 60.2688 180.742 61.4461C179.547 62.6172 178.124 63.5298 176.561 64.127C176.05 64.3264 175.528 64.4937 174.996 64.6278L184.009 71.7243C184.703 71.2968 185.371 70.8294 186.011 70.3244C187.773 68.9391 189.308 67.2868 190.56 65.4274C191.845 63.5142 192.832 61.4171 193.487 59.2079C194.187 56.8293 194.535 54.3611 194.519 51.8818V23.3187C194.551 20.1184 193.957 16.9426 192.77 13.9701C191.667 11.2053 190.013 8.6938 187.907 6.58868C185.796 4.5036 183.29 2.85876 180.537 1.74978C177.59 0.563169 174.438 -0.0310155 171.261 0.00124671H163.545C160.362 -0.0294442 157.204 0.564637 154.25 1.74978C151.487 2.85532 148.973 4.50038 146.854 6.58868C144.749 8.69715 143.091 11.2075 141.978 13.9701C140.778 16.9395 140.177 20.1165 140.209 23.3187V51.8735C140.173 55.0814 140.775 58.2646 141.978 61.2386C143.098 63.9959 144.756 66.5031 146.854 68.6146C148.964 70.7109 151.478 72.3572 154.244 73.4535C157.201 74.6259 160.358 75.2132 163.539 75.1826H167.526L177.25 83.0012H191.925L168.972 65.0871ZM260.367 65.3471V59.0557C260.348 57.8365 260.58 56.6263 261.049 55.5006C261.478 54.486 262.106 53.5671 262.895 52.7975C263.682 52.0409 264.615 51.4526 265.636 51.0684C266.724 50.6597 267.878 50.4552 269.039 50.4652H276.778V65.3471H260.367ZM241.39 40.3614V77.2798C241.397 77.9721 241.265 78.6587 241.002 79.2994C240.755 79.9022 240.391 80.4503 239.931 80.9124C239.475 81.3683 238.934 81.7311 238.339 81.9803C237.716 82.2411 237.048 82.3729 236.373 82.3677H223.462C222.122 82.3577 220.786 82.215 219.475 81.9416C218.032 81.6455 216.629 81.1812 215.294 80.5583C213.882 79.9013 212.545 79.0933 211.307 78.1485C210.004 77.1566 208.868 75.9629 207.943 74.6127C206.938 73.1355 206.158 71.5179 205.628 69.8125C205.019 67.824 204.723 65.7527 204.753 63.6733V40.3614H214.867V63.6788C214.847 64.8978 215.078 66.1079 215.546 67.234C215.975 68.248 216.603 69.1661 217.393 69.9343C218.179 70.6919 219.112 71.2812 220.134 71.6662C221.222 72.0734 222.375 72.2769 223.537 72.2666H231.289V40.3614H241.39ZM324.812 72.2666V82.3704H310.345C308.767 82.351 307.201 82.1022 305.696 81.6317C304.018 81.1236 302.454 80.3001 301.086 79.2054C299.606 78.0113 298.399 76.5141 297.547 74.8147C296.553 72.7459 296.073 70.4683 296.146 68.1747V40.3365H306.258V68.1885C306.232 68.7379 306.322 69.2865 306.523 69.7985C306.724 70.3105 307.031 70.7744 307.423 71.1599C307.813 71.5271 308.272 71.8138 308.772 72.0037C309.273 72.1936 309.806 72.2829 310.342 72.2666H324.812ZM345.556 40.3614V82.3704H335.444V40.3614H345.556ZM393.891 68.1885C393.912 69.7736 393.689 71.3525 393.229 72.8697C392.831 74.1673 392.241 75.3982 391.479 76.5217C390.781 77.5411 389.928 78.4455 388.951 79.2026C388.023 79.9223 387.011 80.5288 385.939 81.0092C384.916 81.4663 383.846 81.8114 382.749 82.0384C381.748 82.2502 380.727 82.3605 379.703 82.3677H356.307V72.2666H379.626C380.188 72.3082 380.753 72.2368 381.287 72.0567C381.821 71.8766 382.313 71.5914 382.735 71.218C383.107 70.808 383.392 70.327 383.573 69.8039C383.754 69.2809 383.827 68.7267 383.787 68.1747C383.842 67.6278 383.773 67.0758 383.587 66.5587C383.401 66.0417 383.102 65.5725 382.711 65.1854C382.321 64.7983 381.849 64.503 381.33 64.3209C380.812 64.1388 380.259 64.0744 379.712 64.1326H368.005C366.047 64.1907 364.103 63.7919 362.326 62.9678C360.874 62.2702 359.583 61.278 358.536 60.0545C357.595 58.9471 356.881 57.6659 356.434 56.2835C356.028 55.0668 355.812 53.795 355.792 52.5126C355.729 50.5454 356.142 48.5921 356.996 46.8188C357.731 45.365 358.77 44.0857 360.042 43.0672C361.221 42.1296 362.568 41.4237 364.01 40.9866C365.307 40.5793 366.657 40.363 368.016 40.3448H392.866V50.4652H368.083C367.668 50.4491 367.253 50.5082 366.859 50.6395C366.598 50.7287 366.368 50.891 366.197 51.1071C366.06 51.2876 365.973 51.5015 365.945 51.7268C365.919 51.9398 365.907 52.1542 365.906 52.3687C365.913 52.7063 365.992 53.0384 366.139 53.3426C366.249 53.5543 366.417 53.7301 366.624 53.8489C366.828 53.9554 367.055 54.015 367.285 54.0232C367.533 54.0361 367.773 54.0425 368.005 54.0425H379.695C381.979 53.9753 384.247 54.4553 386.307 55.4425C388.009 56.2838 389.508 57.4835 390.701 58.9589C391.794 60.3274 392.618 61.8892 393.132 63.5626C393.612 65.0588 393.868 66.6176 393.891 68.1885ZM260.376 74.4799V82.3704H250.256V59.0557C250.227 56.9764 250.522 54.9052 251.131 52.9165C251.662 51.2114 252.442 49.5939 253.445 48.1163C254.371 46.765 255.506 45.5703 256.809 44.5778C258.048 43.634 259.385 42.8261 260.797 42.168C262.131 41.5452 263.535 41.081 264.977 40.7847C266.288 40.5099 267.623 40.3662 268.962 40.3558H281.876C282.549 40.3506 283.217 40.4823 283.839 40.7432C284.434 40.9941 284.976 41.3576 285.434 41.8139C285.893 42.2754 286.257 42.8237 286.502 43.4268C286.765 44.0685 286.897 44.7561 286.89 45.4493V82.3704H276.781V74.4799H260.376Z" fill="#4C549B"/>
<path d="M517.976 80.8847V53.4172H537.98C538.965 53.4035 539.943 53.5904 540.853 53.9667C541.763 54.3429 542.587 54.9006 543.274 55.6057C543.979 56.2913 544.537 57.1131 544.914 58.0211C545.291 58.9291 545.479 59.9043 545.467 60.8872V64.4701C545.481 65.4542 545.294 66.4309 544.917 67.3404C544.541 68.2499 543.983 69.0732 543.277 69.7599C542.59 70.465 541.766 71.0227 540.856 71.3989C539.945 71.7752 538.968 71.9622 537.983 71.9484H524.001V80.8847H517.976ZM524.001 65.9281H537.98C538.367 65.9281 538.738 65.7745 539.012 65.5011C539.286 65.2276 539.439 64.8568 539.439 64.4701V60.8872C539.439 60.5006 539.286 60.1297 539.012 59.8563C538.738 59.5828 538.367 59.4292 537.98 59.4292H524.001V65.9281ZM499.319 80.8847C497.337 80.8847 495.435 80.0977 494.033 78.6968C492.631 77.2959 491.843 75.3959 491.843 73.4147V53.4172H497.868V73.4064C497.869 73.7924 498.023 74.1624 498.296 74.4356C498.569 74.7088 498.939 74.863 499.325 74.8644H515.738V80.8847H499.319ZM469.602 80.8847C467.619 80.8847 465.717 80.0977 464.315 78.6968C462.913 77.2959 462.126 75.3959 462.126 73.4147V60.8872C462.112 59.905 462.298 58.9302 462.673 58.0221C463.048 57.1141 463.604 56.2919 464.308 55.6057C464.995 54.9004 465.819 54.3425 466.729 53.9662C467.639 53.5899 468.617 53.4031 469.602 53.4172H489.606V59.4375H469.602C469.215 59.4382 468.844 59.5921 468.571 59.8654C468.297 60.1386 468.143 60.5091 468.142 60.8955V64.1408H486.029V70.1611H468.142V73.4064C468.145 73.7924 468.299 74.162 468.572 74.435C468.845 74.708 469.215 74.8623 469.602 74.8644H489.606V80.8847H469.602ZM453.864 80.8847V70.1611H438.422V80.8847H432.397V53.4172H438.422V64.1408H453.864V53.4172H459.886V80.8847H453.864Z" fill="#4C549B"/>
<path d="M19.467 5L11.967 11V69.5C11.967 69.5 24.1447 69.0474 31.467 71C38.7894 72.9526 49.467 79.5 49.467 79.5C49.467 79.5 41.3249 70.7218 35.467 67.5C29.6092 64.2782 19.467 63 19.467 63V5Z" fill="#FF7200"/>
<path d="M7.96704 16.5L0.467041 23L0.967041 81C0.967041 81 18.8992 79.5237 28.467 80.5C38.0349 81.4763 49.967 86 49.967 86C49.967 86 40.6681 78.5384 32.467 76C24.266 73.4616 7.96704 73 7.96704 73V16.5Z" fill="#4C549B"/>
<path d="M88.967 5L96.467 11V69.5C96.467 69.5 84.2894 69.0474 76.967 71C69.6447 72.9526 58.967 79.5 58.967 79.5C58.967 79.5 67.1092 70.7218 72.967 67.5C78.8249 64.2782 88.967 63 88.967 63V5Z" fill="#FF7200"/>
<path d="M100.467 16.5L107.967 23L107.467 81C107.467 81 89.5349 79.5237 79.967 80.5C70.3992 81.4763 58.467 86 58.467 86C58.467 86 67.766 78.5384 75.967 76C84.1681 73.4616 100.467 73 100.467 73V16.5Z" fill="#4C549B"/>
<path d="M52.1619 16.8273C52.3186 16.8268 52.3186 16.8268 52.4786 16.8262C52.6982 16.826 52.9178 16.8266 53.1375 16.8282C53.4721 16.8301 53.8065 16.8282 54.1411 16.8259C54.3555 16.8261 54.5698 16.8266 54.7842 16.8273C54.9329 16.8262 54.9329 16.8262 55.0846 16.8251C55.9998 16.8361 56.7573 17.1316 57.4202 17.7734C57.8186 18.239 57.9758 18.7013 58.0783 19.2943C58.1626 19.9313 58.1626 19.9313 58.4899 20.454C58.7304 20.5478 58.9641 20.5968 59.2171 20.6484C59.4559 20.7269 59.6899 20.8169 59.9246 20.9067C59.9861 20.9292 60.0476 20.9517 60.111 20.9749C60.5999 21.1562 61.0515 21.3843 61.5035 21.6451C61.7299 21.7494 61.7299 21.7494 61.958 21.6701C62.1982 21.538 62.4221 21.3932 62.648 21.238C63.4231 20.7386 64.1874 20.5193 65.1022 20.6906C65.9543 20.9091 66.5454 21.4799 67.1581 22.0873C67.2178 22.1463 67.2776 22.2052 67.3391 22.2659C67.4643 22.3898 67.5892 22.5139 67.7139 22.6383C67.9032 22.8265 68.0942 23.013 68.2852 23.1995C69.1264 24.0305 69.8073 24.7651 69.8467 26.0054C69.8362 26.6511 69.6591 27.2328 69.247 27.7356C69.0007 28.0427 68.8483 28.2641 68.7405 28.6445C68.8472 29.2066 69.1651 29.7092 69.4327 30.2081C69.6166 30.5766 69.7445 30.9592 69.8692 31.3511C69.9029 31.454 69.9029 31.454 69.9373 31.5591C70.0882 32.0295 70.0882 32.0295 70.0882 32.2383C70.1426 32.2416 70.197 32.245 70.2531 32.2485C71.4135 32.3395 72.2937 32.6699 73.0853 33.5365C73.5446 34.2505 73.6461 34.9256 73.6398 35.7618C73.6402 35.8641 73.6405 35.9664 73.6409 36.0718C73.6411 36.2868 73.6405 36.5019 73.6389 36.7169C73.637 37.044 73.6389 37.371 73.6412 37.698C73.641 37.908 73.6405 38.118 73.6398 38.328C73.6405 38.4247 73.6413 38.5214 73.642 38.621C73.6306 39.5564 73.3672 40.2787 72.7151 40.9559C72.274 41.3439 71.8224 41.564 71.2376 41.6319C70.6373 41.7046 70.6373 41.7046 70.0882 41.9414C69.7933 42.3358 69.7245 42.8525 69.6145 43.3225C69.4977 43.7441 69.312 44.1342 69.128 44.53C69.0937 44.6056 69.0594 44.6812 69.0241 44.759C68.858 45.1208 68.6858 45.4686 68.471 45.8047C68.109 45.7561 67.9438 45.5797 67.6914 45.3253C67.6087 45.2425 67.526 45.1598 67.4408 45.0746C67.3513 44.9837 67.2619 44.8929 67.1725 44.802C67.0804 44.7094 66.9882 44.6169 66.896 44.5244C66.6538 44.2812 66.4124 44.0371 66.1711 43.7929C65.9247 43.5437 65.6775 43.2952 65.4303 43.0467C64.9457 42.5592 64.462 42.0709 63.9788 41.582C63.9969 41.5223 64.0149 41.4625 64.0335 41.4009C64.0574 41.3215 64.0813 41.2421 64.106 41.1603C64.1296 41.082 64.1532 41.0037 64.1775 40.923C64.2864 40.5548 64.3862 40.1844 64.4842 39.8132C64.5134 39.7051 64.5134 39.7051 64.5431 39.5948C64.5619 39.5238 64.5807 39.4529 64.6 39.3798C64.6166 39.3173 64.6333 39.2548 64.6504 39.1904C65.2689 36.3857 64.6115 33.2854 63.0991 30.8763C62.792 30.4088 62.4487 29.9734 62.0921 29.543C62.0321 29.4692 61.9721 29.3954 61.9103 29.3194C60.0688 27.1435 57.1561 25.8625 54.3513 25.6267C51.2679 25.4107 48.3828 26.4372 46.0101 28.375C45.9427 28.4285 45.8753 28.482 45.8058 28.5371C45.2921 28.9615 44.889 29.4666 44.4827 29.9922C44.4215 30.07 44.3602 30.1478 44.2971 30.228C43.5815 31.169 43.0802 32.1556 42.7027 33.2715C42.6777 33.3449 42.6528 33.4183 42.627 33.4939C42.2571 34.6431 42.096 35.7719 42.1075 36.9775C42.1078 37.0401 42.1081 37.1026 42.1084 37.167C42.1156 38.1937 42.1971 39.161 42.5062 40.1445C42.5278 40.2147 42.5495 40.2848 42.5719 40.3571C43.0629 41.8992 43.8158 43.2125 44.8421 44.457C44.8955 44.5242 44.9489 44.5914 45.0039 44.6606C45.4281 45.1749 45.9337 45.5775 46.4593 45.9844C46.5361 46.0456 46.6128 46.1069 46.692 46.17C49.0397 47.9741 52.0775 48.6346 54.9793 48.2961C55.9141 48.1726 56.8408 47.9787 57.6915 47.5602C57.8694 47.5117 57.8694 47.5117 58.034 47.5736C58.2747 47.7192 58.4505 47.8916 58.649 48.0912C58.7317 48.1739 58.8144 48.2566 58.8996 48.3419C58.9891 48.4322 59.0785 48.5226 59.168 48.613C59.2601 48.7055 59.3522 48.7979 59.4444 48.8902C59.6864 49.1329 59.9279 49.3762 60.1693 49.6196C60.4159 49.868 60.663 50.1159 60.9101 50.3639C61.3944 50.8502 61.8782 51.337 62.3616 51.8242C62.0145 52.1794 61.6906 52.3624 61.2442 52.571C61.1702 52.607 61.0963 52.6429 61.0201 52.6799C60.6107 52.8718 60.2156 53.0213 59.7758 53.1277C58.9346 53.2874 58.9346 53.2874 58.2986 53.793C58.1481 54.2021 58.1097 54.6224 58.0725 55.0542C57.9888 55.7132 57.4739 56.2774 56.971 56.6758C56.4657 56.9871 56.0139 57.1346 55.4195 57.1409C55.3251 57.1421 55.2306 57.1432 55.1332 57.1444C55.0315 57.1451 54.9297 57.1457 54.8249 57.1464C54.7197 57.1471 54.6144 57.1479 54.506 57.1486C54.2831 57.1499 54.0602 57.1508 53.8374 57.1515C53.498 57.1531 53.1587 57.157 52.8194 57.161C52.6026 57.1619 52.3858 57.1627 52.1689 57.1633C52.0681 57.1648 51.9673 57.1664 51.8634 57.168C51.2384 57.1663 50.7788 57.0728 50.2327 56.7656C50.161 56.7256 50.0893 56.6855 50.0155 56.6442C49.3146 56.1398 49.0009 55.5449 48.8559 54.7057C48.7715 54.0687 48.7715 54.0687 48.4443 53.546C48.2037 53.4522 47.9701 53.4032 47.7171 53.3516C47.4783 53.2731 47.2443 53.1831 47.0096 53.0933C46.9481 53.0708 46.8866 53.0483 46.8232 53.0251C46.3343 52.8438 45.8826 52.6157 45.4306 52.3549C45.2043 52.2506 45.2043 52.2506 44.9762 52.3299C44.736 52.4621 44.5121 52.6068 44.2862 52.762C43.5111 53.2614 42.7467 53.4807 41.832 53.3095C40.9799 53.0909 40.3888 52.5201 39.7761 51.9127C39.7164 51.8537 39.6566 51.7948 39.5951 51.7341C39.4699 51.6102 39.345 51.4861 39.2203 51.3617C39.031 51.1735 38.84 50.987 38.649 50.8005C37.8078 49.9695 37.1269 49.2349 37.0875 47.9946C37.0977 47.3644 37.2521 46.7608 37.6904 46.2939C37.9553 46.0056 38.0923 45.8267 38.1937 45.4453C38.0558 44.8015 37.7121 44.215 37.4163 43.6324C37.2456 43.2751 37.1246 42.9107 37.0145 42.531C36.9966 42.4705 36.9787 42.4099 36.9603 42.3476C36.9212 42.2125 36.8834 42.077 36.846 41.9414C36.7386 41.9207 36.6313 41.9 36.5207 41.8786C35.4255 41.658 34.5146 41.4169 33.7913 40.5039C33.48 39.9986 33.3325 39.5468 33.3262 38.9525C33.325 38.858 33.3239 38.7635 33.3227 38.6661C33.322 38.5644 33.3214 38.4627 33.3207 38.3578C33.32 38.2526 33.3192 38.1473 33.3185 38.0389C33.3172 37.816 33.3163 37.5931 33.3156 37.3703C33.314 37.0309 33.3101 36.6917 33.3061 36.3523C33.3052 36.1355 33.3044 35.9187 33.3038 35.7018C33.3023 35.601 33.3007 35.5002 33.2991 35.3963C33.3008 34.7713 33.3943 34.3117 33.7015 33.7656C33.7415 33.6939 33.7816 33.6223 33.8229 33.5484C34.3273 32.8475 34.9222 32.5338 35.7614 32.3888C36.3984 32.3045 36.3984 32.3045 36.9211 31.9772C37.0149 31.7366 37.0639 31.503 37.1155 31.25C37.194 31.0112 37.284 30.7772 37.3738 30.5425C37.3963 30.481 37.4188 30.4195 37.442 30.3561C37.6233 29.8672 37.8514 29.4156 38.1122 28.9636C38.2165 28.7372 38.2165 28.7372 38.1372 28.5091C38.005 28.2689 37.8603 28.045 37.7051 27.8191C37.2057 27.044 36.9864 26.2797 37.1576 25.3649C37.3762 24.5128 37.947 23.9217 38.5544 23.309C38.6134 23.2493 38.6723 23.1895 38.733 23.128C38.8569 23.0028 38.981 22.8779 39.1054 22.7532C39.2936 22.5639 39.4801 22.3729 39.6666 22.1819C40.4976 21.3407 41.2322 20.6598 42.4725 20.6204C43.1006 20.6306 43.7072 20.7828 44.17 21.2233C44.4599 21.4924 44.6357 21.6259 45.0218 21.7266C45.6963 21.5884 46.3091 21.2434 46.9219 20.9413C47.2094 20.8143 47.4797 20.7516 47.7867 20.694C48.0857 20.6342 48.2783 20.5602 48.5257 20.3789C48.7377 19.9523 48.8068 19.4833 48.8889 19.0179C48.9789 18.5095 49.1593 18.15 49.514 17.7734C49.561 17.7226 49.608 17.6718 49.6565 17.6194C50.3674 16.9368 51.2131 16.8203 52.1619 16.8273Z" fill="#4C549B"/>
<path d="M59.7223 30.9019C60.6389 31.8514 61.2913 32.9744 61.7326 34.2148C61.7528 34.2715 61.7729 34.3281 61.7937 34.3864C62.5262 36.5687 62.1843 39.0027 61.198 41.0365C61.0932 41.2434 60.9817 41.4457 60.8685 41.6482C60.8284 41.7202 60.7882 41.7922 60.7468 41.8663C60.7163 41.9207 60.6859 41.9752 60.6545 42.0313C60.7052 42.0814 60.7558 42.1316 60.8081 42.1833C62.0423 43.4057 63.2751 44.6295 64.5062 45.855C65.1016 46.4477 65.6975 47.0398 66.2946 47.6307C66.8151 48.1458 67.3347 48.6619 67.8531 49.1792C68.1276 49.4529 68.4025 49.7262 68.6785 49.9983C68.9386 50.2547 69.1974 50.5124 69.4552 50.7711C69.5498 50.8655 69.6449 50.9595 69.7405 51.053C70.7233 52.0155 70.7233 52.0155 70.8068 52.7227C70.7705 53.2876 70.6091 53.685 70.1779 54.0703C69.7807 54.2878 69.4092 54.3761 68.9594 54.3062C68.1274 54.0528 67.499 53.2008 66.9026 52.6021C66.8105 52.51 66.7183 52.4178 66.6262 52.3257C66.378 52.0776 66.1301 51.8292 65.8823 51.5807C65.6225 51.3204 65.3625 51.0603 65.1024 50.8001C64.611 50.3084 64.1198 49.8165 63.6287 49.3244C63.0691 48.7639 62.5093 48.2036 61.9495 47.6433C60.7988 46.4917 59.6484 45.3397 58.4982 44.1875C58.4306 44.2246 58.3629 44.2617 58.2932 44.2999C58.2044 44.3485 58.1155 44.3971 58.0239 44.4472C57.9359 44.4954 57.8479 44.5436 57.7572 44.5932C55.7754 45.662 53.3993 46.0224 51.199 45.437C48.8525 44.732 46.9133 43.2053 45.7404 41.043C44.6656 38.9182 44.4849 36.5204 45.1743 34.2452C45.5577 33.0884 46.1701 32.053 46.9982 31.1602C47.0674 31.0838 47.1365 31.0075 47.2077 30.9289C48.7731 29.2775 50.8916 28.4095 53.1468 28.2905C55.6631 28.2325 57.9024 29.1838 59.7223 30.9019ZM49.3566 32.9739C48.1565 34.2755 47.6939 35.7581 47.7636 37.5071C47.87 39.0132 48.6027 40.2848 49.6935 41.3125C50.909 42.3139 52.3288 42.7889 53.9 42.7391C55.552 42.5719 56.884 41.8151 57.9623 40.5516C59.027 39.18 59.2622 37.7065 59.1271 36.0117C58.8829 34.4703 57.9233 33.1658 56.6845 32.2551C54.3264 30.6572 51.3959 31.1221 49.3566 32.9739Z" fill="#FF7200"/>
</svg>
