<svg width="108" height="81" viewBox="0 0 108 81" fill="none" xmlns="http://www.w3.org/2000/svg">
<path d="M19.467 0L11.967 6V64.5C11.967 64.5 24.1447 64.0474 31.467 66C38.7894 67.9526 49.467 74.5 49.467 74.5C49.467 74.5 41.3249 65.7218 35.467 62.5C29.6092 59.2782 19.467 58 19.467 58V0Z" fill="#FF7200"/>
<path d="M7.96704 11.5L0.467041 18L0.967041 76C0.967041 76 18.8992 74.5237 28.467 75.5C38.0349 76.4763 49.967 81 49.967 81C49.967 81 40.6681 73.5384 32.467 71C24.266 68.4616 7.96704 68 7.96704 68V11.5Z" fill="#4C549B"/>
<path d="M88.967 0L96.467 6V64.5C96.467 64.5 84.2894 64.0474 76.967 66C69.6447 67.9526 58.967 74.5 58.967 74.5C58.967 74.5 67.1092 65.7218 72.967 62.5C78.8249 59.2782 88.967 58 88.967 58V0Z" fill="#FF7200"/>
<path d="M100.467 11.5L107.967 18L107.467 76C107.467 76 89.5349 74.5237 79.967 75.5C70.3992 76.4763 58.467 81 58.467 81C58.467 81 67.766 73.5384 75.967 71C84.1681 68.4616 100.467 68 100.467 68V11.5Z" fill="#4C549B"/>
<path d="M52.1619 11.8273C52.3186 11.8268 52.3186 11.8268 52.4786 11.8262C52.6982 11.826 52.9178 11.8266 53.1375 11.8282C53.4721 11.8301 53.8065 11.8282 54.1411 11.8259C54.3555 11.8261 54.5698 11.8266 54.7842 11.8273C54.9329 11.8262 54.9329 11.8262 55.0846 11.8251C55.9998 11.8361 56.7573 12.1316 57.4202 12.7734C57.8186 13.239 57.9758 13.7013 58.0783 14.2943C58.1626 14.9313 58.1626 14.9313 58.4899 15.454C58.7304 15.5478 58.9641 15.5968 59.2171 15.6484C59.4559 15.7269 59.6899 15.8169 59.9246 15.9067C59.9861 15.9292 60.0476 15.9517 60.111 15.9749C60.5999 16.1562 61.0515 16.3843 61.5035 16.6451C61.7299 16.7494 61.7299 16.7494 61.958 16.6701C62.1982 16.538 62.4221 16.3932 62.648 16.238C63.4231 15.7386 64.1874 15.5193 65.1022 15.6906C65.9543 15.9091 66.5454 16.4799 67.1581 17.0873C67.2178 17.1463 67.2776 17.2052 67.3391 17.2659C67.4643 17.3898 67.5892 17.5139 67.7139 17.6383C67.9032 17.8265 68.0942 18.013 68.2852 18.1995C69.1264 19.0305 69.8073 19.7651 69.8467 21.0054C69.8362 21.6511 69.6591 22.2328 69.247 22.7356C69.0007 23.0427 68.8483 23.2641 68.7405 23.6445C68.8472 24.2066 69.1651 24.7092 69.4327 25.2081C69.6166 25.5766 69.7445 25.9592 69.8692 26.3511C69.9029 26.454 69.9029 26.454 69.9373 26.5591C70.0882 27.0295 70.0882 27.0295 70.0882 27.2383C70.1426 27.2416 70.197 27.245 70.2531 27.2485C71.4135 27.3395 72.2937 27.6699 73.0853 28.5365C73.5446 29.2505 73.6461 29.9256 73.6398 30.7618C73.6402 30.8641 73.6405 30.9664 73.6409 31.0718C73.6411 31.2868 73.6405 31.5019 73.6389 31.7169C73.637 32.044 73.6389 32.371 73.6412 32.698C73.641 32.908 73.6405 33.118 73.6398 33.328C73.6405 33.4247 73.6413 33.5214 73.642 33.621C73.6306 34.5564 73.3672 35.2787 72.7151 35.9559C72.274 36.3439 71.8224 36.564 71.2376 36.6319C70.6373 36.7046 70.6373 36.7046 70.0882 36.9414C69.7933 37.3358 69.7245 37.8525 69.6145 38.3225C69.4977 38.7441 69.312 39.1342 69.128 39.53C69.0937 39.6056 69.0594 39.6812 69.0241 39.759C68.858 40.1208 68.6858 40.4686 68.471 40.8047C68.109 40.7561 67.9438 40.5797 67.6914 40.3253C67.6087 40.2425 67.526 40.1598 67.4408 40.0746C67.3513 39.9837 67.2619 39.8929 67.1725 39.802C67.0804 39.7094 66.9882 39.6169 66.896 39.5244C66.6538 39.2812 66.4124 39.0371 66.1711 38.7929C65.9247 38.5437 65.6775 38.2952 65.4303 38.0467C64.9457 37.5592 64.462 37.0709 63.9788 36.582C63.9969 36.5223 64.0149 36.4625 64.0335 36.4009C64.0574 36.3215 64.0813 36.2421 64.106 36.1603C64.1296 36.082 64.1532 36.0037 64.1775 35.923C64.2864 35.5548 64.3862 35.1844 64.4842 34.8132C64.5134 34.7051 64.5134 34.7051 64.5431 34.5948C64.5619 34.5238 64.5807 34.4529 64.6 34.3798C64.6166 34.3173 64.6333 34.2548 64.6504 34.1904C65.2689 31.3857 64.6115 28.2854 63.0991 25.8763C62.792 25.4088 62.4487 24.9734 62.0921 24.543C62.0321 24.4692 61.9721 24.3954 61.9103 24.3194C60.0688 22.1435 57.1561 20.8625 54.3513 20.6267C51.2679 20.4107 48.3828 21.4372 46.0101 23.375C45.9427 23.4285 45.8753 23.482 45.8058 23.5371C45.2921 23.9615 44.889 24.4666 44.4827 24.9922C44.4215 25.07 44.3602 25.1478 44.2971 25.228C43.5815 26.169 43.0802 27.1556 42.7027 28.2715C42.6777 28.3449 42.6528 28.4183 42.627 28.4939C42.2571 29.6431 42.096 30.7719 42.1075 31.9775C42.1078 32.0401 42.1081 32.1026 42.1084 32.167C42.1156 33.1937 42.1971 34.161 42.5062 35.1445C42.5278 35.2147 42.5495 35.2848 42.5719 35.3571C43.0629 36.8992 43.8158 38.2125 44.8421 39.457C44.8955 39.5242 44.9489 39.5914 45.0039 39.6606C45.4281 40.1749 45.9337 40.5775 46.4593 40.9844C46.5361 41.0456 46.6128 41.1069 46.692 41.17C49.0397 42.9741 52.0775 43.6346 54.9793 43.2961C55.9141 43.1726 56.8408 42.9787 57.6915 42.5602C57.8694 42.5117 57.8694 42.5117 58.034 42.5736C58.2747 42.7192 58.4505 42.8916 58.649 43.0912C58.7317 43.1739 58.8144 43.2566 58.8996 43.3419C58.9891 43.4322 59.0785 43.5226 59.168 43.613C59.2601 43.7055 59.3522 43.7979 59.4444 43.8902C59.6864 44.1329 59.9279 44.3762 60.1693 44.6196C60.4159 44.868 60.663 45.1159 60.9101 45.3639C61.3944 45.8502 61.8782 46.337 62.3616 46.8242C62.0145 47.1794 61.6906 47.3624 61.2442 47.571C61.1702 47.607 61.0963 47.6429 61.0201 47.6799C60.6107 47.8718 60.2156 48.0213 59.7758 48.1277C58.9346 48.2874 58.9346 48.2874 58.2986 48.793C58.1481 49.2021 58.1097 49.6224 58.0725 50.0542C57.9888 50.7132 57.4739 51.2774 56.971 51.6758C56.4657 51.9871 56.0139 52.1346 55.4195 52.1409C55.3251 52.1421 55.2306 52.1432 55.1332 52.1444C55.0315 52.1451 54.9297 52.1457 54.8249 52.1464C54.7197 52.1471 54.6144 52.1479 54.506 52.1486C54.2831 52.1499 54.0602 52.1508 53.8374 52.1515C53.498 52.1531 53.1587 52.157 52.8194 52.161C52.6026 52.1619 52.3858 52.1627 52.1689 52.1633C52.0681 52.1648 51.9673 52.1664 51.8634 52.168C51.2384 52.1663 50.7788 52.0728 50.2327 51.7656C50.161 51.7256 50.0893 51.6855 50.0155 51.6442C49.3146 51.1398 49.0009 50.5449 48.8559 49.7057C48.7715 49.0687 48.7715 49.0687 48.4443 48.546C48.2037 48.4522 47.9701 48.4032 47.7171 48.3516C47.4783 48.2731 47.2443 48.1831 47.0096 48.0933C46.9481 48.0708 46.8866 48.0483 46.8232 48.0251C46.3343 47.8438 45.8826 47.6157 45.4306 47.3549C45.2043 47.2506 45.2043 47.2506 44.9762 47.3299C44.736 47.4621 44.5121 47.6068 44.2862 47.762C43.5111 48.2614 42.7467 48.4807 41.832 48.3095C40.9799 48.0909 40.3888 47.5201 39.7761 46.9127C39.7164 46.8537 39.6566 46.7948 39.5951 46.7341C39.4699 46.6102 39.345 46.4861 39.2203 46.3617C39.031 46.1735 38.84 45.987 38.649 45.8005C37.8078 44.9695 37.1269 44.2349 37.0875 42.9946C37.0977 42.3644 37.2521 41.7608 37.6904 41.2939C37.9553 41.0056 38.0923 40.8267 38.1937 40.4453C38.0558 39.8015 37.7121 39.215 37.4163 38.6324C37.2456 38.2751 37.1246 37.9107 37.0145 37.531C36.9966 37.4705 36.9787 37.4099 36.9603 37.3476C36.9212 37.2125 36.8834 37.077 36.846 36.9414C36.7386 36.9207 36.6313 36.9 36.5207 36.8786C35.4255 36.658 34.5146 36.4169 33.7913 35.5039C33.48 34.9986 33.3325 34.5468 33.3262 33.9525C33.325 33.858 33.3239 33.7635 33.3227 33.6661C33.322 33.5644 33.3214 33.4627 33.3207 33.3578C33.32 33.2526 33.3192 33.1473 33.3185 33.0389C33.3172 32.816 33.3163 32.5931 33.3156 32.3703C33.314 32.0309 33.3101 31.6917 33.3061 31.3523C33.3052 31.1355 33.3044 30.9187 33.3038 30.7018C33.3023 30.601 33.3007 30.5002 33.2991 30.3963C33.3008 29.7713 33.3943 29.3117 33.7015 28.7656C33.7415 28.6939 33.7816 28.6223 33.8229 28.5484C34.3273 27.8475 34.9222 27.5338 35.7614 27.3888C36.3984 27.3045 36.3984 27.3045 36.9211 26.9772C37.0149 26.7366 37.0639 26.503 37.1155 26.25C37.194 26.0112 37.284 25.7772 37.3738 25.5425C37.3963 25.481 37.4188 25.4195 37.442 25.3561C37.6233 24.8672 37.8514 24.4156 38.1122 23.9636C38.2165 23.7372 38.2165 23.7372 38.1372 23.5091C38.005 23.2689 37.8603 23.045 37.7051 22.8191C37.2057 22.044 36.9864 21.2797 37.1576 20.3649C37.3762 19.5128 37.947 18.9217 38.5544 18.309C38.6134 18.2493 38.6723 18.1895 38.733 18.128C38.8569 18.0028 38.981 17.8779 39.1054 17.7532C39.2936 17.5639 39.4801 17.3729 39.6666 17.1819C40.4976 16.3407 41.2322 15.6598 42.4725 15.6204C43.1006 15.6306 43.7072 15.7828 44.17 16.2233C44.4599 16.4924 44.6357 16.6259 45.0218 16.7266C45.6963 16.5884 46.3091 16.2434 46.9219 15.9413C47.2094 15.8143 47.4797 15.7516 47.7867 15.694C48.0857 15.6342 48.2783 15.5602 48.5257 15.3789C48.7377 14.9523 48.8068 14.4833 48.8889 14.0179C48.9789 13.5095 49.1593 13.15 49.514 12.7734C49.561 12.7226 49.608 12.6718 49.6565 12.6194C50.3674 11.9368 51.2131 11.8203 52.1619 11.8273Z" fill="#4C549B"/>
<path d="M59.7223 25.9019C60.6389 26.8514 61.2913 27.9744 61.7326 29.2148C61.7528 29.2715 61.7729 29.3281 61.7937 29.3864C62.5262 31.5687 62.1843 34.0027 61.198 36.0365C61.0932 36.2434 60.9817 36.4457 60.8685 36.6482C60.8284 36.7202 60.7882 36.7922 60.7468 36.8663C60.7163 36.9207 60.6859 36.9752 60.6545 37.0313C60.7052 37.0814 60.7558 37.1316 60.8081 37.1833C62.0423 38.4057 63.2751 39.6295 64.5062 40.855C65.1016 41.4477 65.6975 42.0398 66.2946 42.6307C66.8151 43.1458 67.3347 43.6619 67.8531 44.1792C68.1276 44.4529 68.4025 44.7262 68.6785 44.9983C68.9386 45.2547 69.1974 45.5124 69.4552 45.7711C69.5498 45.8655 69.6449 45.9595 69.7405 46.053C70.7233 47.0155 70.7233 47.0155 70.8068 47.7227C70.7705 48.2876 70.6091 48.685 70.1779 49.0703C69.7807 49.2878 69.4092 49.3761 68.9594 49.3062C68.1274 49.0528 67.499 48.2008 66.9026 47.6021C66.8105 47.51 66.7183 47.4178 66.6262 47.3257C66.378 47.0776 66.1301 46.8292 65.8823 46.5807C65.6225 46.3204 65.3625 46.0603 65.1024 45.8001C64.611 45.3084 64.1198 44.8165 63.6287 44.3244C63.0691 43.7639 62.5093 43.2036 61.9495 42.6433C60.7988 41.4917 59.6484 40.3397 58.4982 39.1875C58.4306 39.2246 58.3629 39.2617 58.2932 39.2999C58.2044 39.3485 58.1155 39.3971 58.0239 39.4472C57.9359 39.4954 57.8479 39.5436 57.7572 39.5932C55.7754 40.662 53.3993 41.0224 51.199 40.437C48.8525 39.732 46.9133 38.2053 45.7404 36.043C44.6656 33.9182 44.4849 31.5204 45.1743 29.2452C45.5577 28.0884 46.1701 27.053 46.9982 26.1602C47.0674 26.0838 47.1365 26.0075 47.2077 25.9289C48.7731 24.2775 50.8916 23.4095 53.1468 23.2905C55.6631 23.2325 57.9024 24.1838 59.7223 25.9019ZM49.3566 27.9739C48.1565 29.2755 47.6939 30.7581 47.7636 32.5071C47.87 34.0132 48.6027 35.2848 49.6935 36.3125C50.909 37.3139 52.3288 37.7889 53.9 37.7391C55.552 37.5719 56.884 36.8151 57.9623 35.5516C59.027 34.18 59.2622 32.7065 59.1271 31.0117C58.8829 29.4703 57.9233 28.1658 56.6845 27.2551C54.3264 25.6572 51.3959 26.1221 49.3566 27.9739Z" fill="#FF7200"/>
</svg>
