<svg width="36" height="28" viewBox="0 0 36 28" fill="none" xmlns="http://www.w3.org/2000/svg">
<path d="M6.36282 0L3.8512 2.0093V21.6C3.8512 21.6 7.9293 21.4484 10.3814 22.1023C12.8336 22.7562 16.4093 24.9488 16.4093 24.9488C16.4093 24.9488 13.6827 22.0092 11.721 20.9302C9.75926 19.8513 6.36282 19.4232 6.36282 19.4232V0Z" fill="#FF7200"/>
<path d="M2.51163 3.85117L0 6.02791L0.167442 25.4512C0.167442 25.4512 6.17263 24.9568 9.37674 25.2837C12.5809 25.6107 16.5767 27.1256 16.5767 27.1256C16.5767 27.1256 13.4627 24.6268 10.7163 23.7767C7.96989 22.9267 2.51163 22.7721 2.51163 22.7721V3.85117Z" fill="#4C549B"/>
<path d="M29.6372 0L32.1488 2.0093V21.6C32.1488 21.6 28.0707 21.4484 25.6186 22.1023C23.1664 22.7562 19.5907 24.9488 19.5907 24.9488C19.5907 24.9488 22.3173 22.0092 24.279 20.9302C26.2407 19.8513 29.6372 19.4232 29.6372 19.4232V0Z" fill="#FF7200"/>
<path d="M33.4884 3.85117L36 6.02791L35.8326 25.4512C35.8326 25.4512 29.8274 24.9568 26.6233 25.2837C23.4191 25.6107 19.4233 27.1256 19.4233 27.1256C19.4233 27.1256 22.5373 24.6268 25.2837 23.7767C28.0301 22.9267 33.4884 22.7721 33.4884 22.7721V3.85117Z" fill="#4C549B"/>
<g clip-path="url(#clip0_6_211)">
<path d="M17.3117 3.96076C17.3642 3.96059 17.3642 3.96059 17.4178 3.96041C17.4913 3.96033 17.5649 3.96055 17.6384 3.96105C17.7505 3.9617 17.8625 3.96106 17.9745 3.96029C18.0463 3.96037 18.1181 3.96052 18.1899 3.96076C18.2397 3.96039 18.2397 3.96039 18.2905 3.96002C18.597 3.96371 18.8507 4.06267 19.0726 4.27762C19.2061 4.43352 19.2587 4.58833 19.293 4.78692C19.3213 5.00026 19.3213 5.00026 19.4309 5.1753C19.5114 5.20671 19.5897 5.22312 19.6744 5.24041C19.7544 5.26669 19.8327 5.29683 19.9113 5.32691C19.9319 5.33444 19.9525 5.34197 19.9737 5.34974C20.1375 5.41044 20.2887 5.48683 20.4401 5.57419C20.5159 5.60909 20.5159 5.60909 20.5923 5.58253C20.6727 5.53829 20.7477 5.48982 20.8233 5.43785C21.0829 5.27061 21.3389 5.19716 21.6452 5.25451C21.9306 5.3277 22.1285 5.51886 22.3337 5.72227C22.3537 5.742 22.3737 5.76174 22.3943 5.78207C22.4362 5.82356 22.4781 5.86513 22.5198 5.90678C22.5832 5.96981 22.6472 6.03226 22.7111 6.09472C22.9929 6.37301 23.2209 6.61901 23.2341 7.03436C23.2306 7.25058 23.1713 7.4454 23.0332 7.61377C22.9508 7.71662 22.8997 7.79075 22.8636 7.91817C22.8994 8.10641 23.0058 8.27472 23.0954 8.44177C23.157 8.56519 23.1998 8.69332 23.2416 8.82454C23.2529 8.85902 23.2529 8.85902 23.2644 8.8942C23.3149 9.05174 23.3149 9.05174 23.3149 9.12165C23.3332 9.12278 23.3514 9.1239 23.3702 9.12506C23.7588 9.15555 24.0535 9.2662 24.3186 9.55639C24.4724 9.7955 24.5064 10.0216 24.5043 10.3016C24.5044 10.3359 24.5046 10.3701 24.5047 10.4054C24.5048 10.4775 24.5045 10.5495 24.504 10.6215C24.5034 10.731 24.504 10.8405 24.5048 10.95C24.5047 11.0204 24.5046 11.0907 24.5043 11.161C24.5046 11.1934 24.5048 11.2258 24.5051 11.2591C24.5012 11.5724 24.413 11.8143 24.1946 12.0411C24.0469 12.171 23.8957 12.2447 23.6998 12.2674C23.4988 12.2918 23.4988 12.2918 23.3149 12.3711C23.2162 12.5032 23.1931 12.6762 23.1563 12.8336C23.1172 12.9748 23.055 13.1054 22.9934 13.238C22.9819 13.2633 22.9704 13.2886 22.9586 13.3146C22.903 13.4358 22.8453 13.5523 22.7734 13.6648C22.6521 13.6486 22.5968 13.5895 22.5123 13.5043C22.4846 13.4766 22.4569 13.4489 22.4284 13.4203C22.3984 13.3899 22.3685 13.3595 22.3385 13.329C22.3077 13.298 22.2768 13.267 22.2459 13.2361C22.1648 13.1546 22.084 13.0729 22.0032 12.9911C21.9207 12.9076 21.8379 12.8244 21.7551 12.7412C21.5928 12.578 21.4308 12.4144 21.269 12.2507C21.2751 12.2307 21.2811 12.2107 21.2873 12.1901C21.2953 12.1635 21.3033 12.1369 21.3116 12.1095C21.3195 12.0833 21.3274 12.057 21.3356 12.03C21.372 11.9067 21.4054 11.7827 21.4383 11.6584C21.448 11.6222 21.448 11.6222 21.458 11.5852C21.4643 11.5615 21.4706 11.5377 21.477 11.5132C21.4826 11.4923 21.4882 11.4714 21.4939 11.4498C21.7011 10.5106 21.4809 9.47231 20.9744 8.66554C20.8716 8.50897 20.7566 8.36318 20.6372 8.21904C20.6171 8.19433 20.597 8.16963 20.5763 8.14417C19.9596 7.41549 18.9842 6.9865 18.0449 6.90753C17.0123 6.83519 16.0462 7.17896 15.2516 7.8279C15.229 7.84582 15.2064 7.86374 15.1832 7.8822C15.0111 8.02432 14.8762 8.19346 14.7401 8.36947C14.7196 8.39554 14.6991 8.4216 14.6779 8.44845C14.4383 8.76358 14.2704 9.09395 14.144 9.46766C14.1356 9.49224 14.1273 9.51683 14.1187 9.54215C13.9948 9.92697 13.9408 10.305 13.9447 10.7088C13.9448 10.7297 13.9449 10.7506 13.945 10.7722C13.9474 11.116 13.9747 11.44 14.0782 11.7693C14.0854 11.7928 14.0927 11.8163 14.1002 11.8405C14.2646 12.3569 14.5168 12.7967 14.8604 13.2135C14.8783 13.236 14.8962 13.2585 14.9146 13.2817C15.0567 13.4539 15.226 13.5887 15.402 13.725C15.4277 13.7455 15.4534 13.766 15.4799 13.7872C16.2662 14.3913 17.2835 14.6125 18.2552 14.4992C18.5683 14.4578 18.8786 14.3929 19.1635 14.2527C19.2231 14.2365 19.2231 14.2365 19.2782 14.2572C19.3588 14.306 19.4177 14.3637 19.4841 14.4305C19.5118 14.4582 19.5395 14.4859 19.5681 14.5145C19.598 14.5447 19.628 14.575 19.6579 14.6053C19.6888 14.6362 19.7196 14.6672 19.7505 14.6981C19.8316 14.7794 19.9124 14.8609 19.9933 14.9424C20.0759 15.0256 20.1586 15.1086 20.2413 15.1916C20.4035 15.3545 20.5656 15.5175 20.7274 15.6807C20.6112 15.7996 20.5027 15.8609 20.3532 15.9308C20.3285 15.9428 20.3037 15.9548 20.2782 15.9672C20.1411 16.0315 20.0088 16.0815 19.8615 16.1172C19.5798 16.1707 19.5798 16.1707 19.3668 16.34C19.3164 16.477 19.3036 16.6177 19.2911 16.7623C19.2631 16.983 19.0906 17.172 18.9222 17.3054C18.753 17.4096 18.6017 17.459 18.4027 17.4611C18.371 17.4615 18.3394 17.4619 18.3068 17.4623C18.2727 17.4625 18.2386 17.4627 18.2035 17.463C18.1683 17.4632 18.133 17.4635 18.0967 17.4637C18.0221 17.4641 17.9474 17.4645 17.8728 17.4647C17.7592 17.4652 17.6456 17.4665 17.5319 17.4679C17.4593 17.4682 17.3867 17.4684 17.3141 17.4686C17.2803 17.4691 17.2465 17.4697 17.2118 17.4702C17.0024 17.4696 16.8486 17.4383 16.6657 17.3355C16.6417 17.322 16.6177 17.3086 16.5929 17.2948C16.3582 17.1259 16.2531 16.9267 16.2046 16.6456C16.1763 16.4323 16.1763 16.4323 16.0667 16.2573C15.9862 16.2258 15.908 16.2094 15.8232 16.1921C15.7433 16.1659 15.6649 16.1357 15.5863 16.1056C15.5657 16.0981 15.5451 16.0906 15.5239 16.0828C15.3602 16.0221 15.2089 15.9457 15.0575 15.8584C14.9817 15.8235 14.9817 15.8235 14.9053 15.85C14.8249 15.8943 14.7499 15.9427 14.6743 15.9947C14.4147 16.1619 14.1587 16.2354 13.8524 16.178C13.5671 16.1049 13.3691 15.9137 13.1639 15.7103C13.1439 15.6905 13.1239 15.6708 13.1033 15.6505C13.0614 15.609 13.0195 15.5674 12.9778 15.5258C12.9144 15.4627 12.8504 15.4003 12.7865 15.3378C12.5048 15.0595 12.2767 14.8135 12.2635 14.3982C12.267 14.1871 12.3187 13.985 12.4655 13.8287C12.5542 13.7321 12.6001 13.6722 12.634 13.5445C12.5878 13.3289 12.4727 13.1325 12.3736 12.9374C12.3165 12.8177 12.276 12.6957 12.2391 12.5685C12.2331 12.5482 12.2271 12.528 12.221 12.5071C12.2079 12.4618 12.1952 12.4165 12.1827 12.3711C12.1467 12.3641 12.1108 12.3572 12.0737 12.35C11.707 12.2761 11.4019 12.1954 11.1597 11.8897C11.0555 11.7205 11.0061 11.5692 11.004 11.3701C11.0036 11.3385 11.0032 11.3068 11.0028 11.2742C11.0026 11.2402 11.0023 11.2061 11.0021 11.171C11.0019 11.1357 11.0016 11.1005 11.0014 11.0642C11.001 10.9895 11.0006 10.9149 11.0004 10.8403C10.9999 10.7266 10.9986 10.613 10.9972 10.4994C10.9969 10.4268 10.9967 10.3542 10.9965 10.2815C10.9959 10.2478 10.9954 10.214 10.9949 10.1792C10.9954 9.96991 11.0268 9.81602 11.1296 9.63314C11.143 9.60913 11.1565 9.58512 11.1703 9.56039C11.3392 9.32568 11.5384 9.22061 11.8195 9.17207C12.0328 9.14381 12.0328 9.14381 12.2078 9.03421C12.2392 8.95366 12.2557 8.87543 12.2729 8.79069C12.2992 8.71074 12.3294 8.63236 12.3594 8.55376C12.367 8.53316 12.3745 8.51256 12.3823 8.49134C12.443 8.32762 12.5194 8.17637 12.6067 8.025C12.6416 7.9492 12.6416 7.9492 12.6151 7.8728C12.5708 7.79238 12.5224 7.7174 12.4704 7.64174C12.3031 7.38217 12.2297 7.12621 12.287 6.81987C12.3602 6.53453 12.5514 6.33657 12.7548 6.13139C12.7745 6.11138 12.7943 6.09138 12.8146 6.07077C12.8561 6.02884 12.8977 5.987 12.9393 5.94524C13.0023 5.88185 13.0648 5.81791 13.1273 5.75395C13.4055 5.47224 13.6515 5.2442 14.0669 5.231C14.2772 5.23443 14.4804 5.28538 14.6354 5.43292C14.7325 5.52303 14.7913 5.56774 14.9206 5.60145C15.1465 5.55518 15.3517 5.43964 15.5569 5.33847C15.6532 5.29595 15.7437 5.27495 15.8465 5.25568C15.9467 5.23565 16.0112 5.21084 16.094 5.15014C16.165 5.00727 16.1881 4.8502 16.2157 4.69437C16.2458 4.52409 16.3062 4.40372 16.425 4.27762C16.4407 4.26059 16.4565 4.24356 16.4727 4.22602C16.7108 3.99744 16.994 3.95842 17.3117 3.96076Z" fill="#4C549B"/>
<path d="M19.8437 8.67409C20.1506 8.99208 20.3691 9.36816 20.5169 9.78355C20.5236 9.80251 20.5304 9.82146 20.5373 9.84099C20.7826 10.5718 20.6682 11.3869 20.3379 12.068C20.3027 12.1373 20.2654 12.205 20.2275 12.2729C20.2141 12.297 20.2006 12.3211 20.1868 12.3459C20.1765 12.3641 20.1663 12.3824 20.1558 12.4011C20.1728 12.4179 20.1898 12.4348 20.2073 12.4521C20.6206 12.8614 21.0334 13.2713 21.4457 13.6817C21.6451 13.8801 21.8446 14.0784 22.0446 14.2763C22.2189 14.4488 22.3929 14.6216 22.5665 14.7949C22.6584 14.8865 22.7505 14.978 22.843 15.0692C22.9301 15.155 23.0167 15.2413 23.1031 15.328C23.1347 15.3596 23.1666 15.3911 23.1986 15.4224C23.5277 15.7447 23.5277 15.7447 23.5557 15.9815C23.5435 16.1707 23.4895 16.3038 23.3451 16.4328C23.2121 16.5057 23.0876 16.5352 22.937 16.5118C22.6584 16.427 22.4479 16.1416 22.2482 15.9412C22.2174 15.9103 22.1865 15.8794 22.1557 15.8486C22.0726 15.7655 21.9895 15.6823 21.9066 15.5991C21.8196 15.5119 21.7325 15.4248 21.6454 15.3377C21.4808 15.173 21.3163 15.0083 21.1518 14.8435C20.9645 14.6558 20.777 14.4682 20.5895 14.2805C20.2042 13.8949 19.8189 13.5091 19.4337 13.1232C19.4111 13.1356 19.3884 13.1481 19.3651 13.1609C19.3353 13.1771 19.3056 13.1934 19.2749 13.2102C19.2454 13.2263 19.216 13.2425 19.1856 13.2591C18.5219 13.617 17.7262 13.7377 16.9894 13.5417C16.2035 13.3056 15.5541 12.7943 15.1614 12.0702C14.8014 11.3586 14.7409 10.5557 14.9718 9.79371C15.1002 9.40632 15.3052 9.05958 15.5826 8.76059C15.6057 8.73503 15.6289 8.70947 15.6527 8.68314C16.177 8.13013 16.8864 7.83944 17.6416 7.79958C18.4843 7.78015 19.2342 8.09873 19.8437 8.67409ZM16.3724 9.36797C15.9705 9.80387 15.8155 10.3003 15.8389 10.8861C15.8745 11.3904 16.1199 11.8163 16.4852 12.1604C16.8922 12.4958 17.3677 12.6549 17.8939 12.6382C18.4471 12.5822 18.8932 12.3288 19.2543 11.9056C19.6108 11.4463 19.6896 10.9529 19.6443 10.3853C19.5626 9.86911 19.2412 9.43224 18.8264 9.12728C18.0367 8.59215 17.0553 8.74786 16.3724 9.36797Z" fill="#FF7200"/>
</g>
<defs>
<clipPath id="clip0_6_211">
<rect width="15.4046" height="15.4046" fill="white" transform="translate(10.0465 3.01395)"/>
</clipPath>
</defs>
</svg>
